<mxfile host="app.diagrams.net" modified="2024-07-20T16:30:07.367Z" agent="Mozilla/5.0 (Windows NT 10.0; Win64; x64) AppleWebKit/537.36 (KHTML, like Gecko) Chrome/123.0.0.0 Safari/537.36 OPR/109.0.0.0" etag="G4C44cnsTx-1Q5chMlmK" version="24.7.2" type="google">
  <diagram name="Page-1" id="evIeKzIpnHdOSmaLCxZJ">
    <mxGraphModel grid="1" page="1" gridSize="10" guides="1" tooltips="1" connect="1" arrows="1" fold="1" pageScale="1" pageWidth="850" pageHeight="1100" math="0" shadow="0">
      <root>
        <mxCell id="0" />
        <mxCell id="1" parent="0" />
        <mxCell id="Njh6gPiwi0WYRp7ecPLT-1" style="edgeStyle=orthogonalEdgeStyle;rounded=0;orthogonalLoop=1;jettySize=auto;html=1;exitX=0.5;exitY=0;exitDx=0;exitDy=0;entryX=0.5;entryY=1;entryDx=0;entryDy=0;endArrow=none;endFill=0;" edge="1" parent="1" source="Njh6gPiwi0WYRp7ecPLT-4" target="Njh6gPiwi0WYRp7ecPLT-74">
          <mxGeometry relative="1" as="geometry" />
        </mxCell>
        <mxCell id="Njh6gPiwi0WYRp7ecPLT-2" style="edgeStyle=orthogonalEdgeStyle;rounded=0;orthogonalLoop=1;jettySize=auto;html=1;endArrow=none;endFill=0;" edge="1" parent="1" source="Njh6gPiwi0WYRp7ecPLT-108">
          <mxGeometry relative="1" as="geometry">
            <mxPoint x="1148" y="1630" as="targetPoint" />
          </mxGeometry>
        </mxCell>
        <mxCell id="Njh6gPiwi0WYRp7ecPLT-3" value="(0, N)" style="edgeLabel;html=1;align=center;verticalAlign=middle;resizable=0;points=[];" connectable="0" vertex="1" parent="Njh6gPiwi0WYRp7ecPLT-2">
          <mxGeometry x="0.7435" y="-3" relative="1" as="geometry">
            <mxPoint x="3" y="-155" as="offset" />
          </mxGeometry>
        </mxCell>
        <mxCell id="Njh6gPiwi0WYRp7ecPLT-4" value="Instância de item" style="shape=ext;margin=3;double=1;whiteSpace=wrap;html=1;align=center;" vertex="1" parent="1">
          <mxGeometry x="1098" y="1160" width="100" height="40" as="geometry" />
        </mxCell>
        <mxCell id="Njh6gPiwi0WYRp7ecPLT-5" style="edgeStyle=orthogonalEdgeStyle;rounded=0;orthogonalLoop=1;jettySize=auto;html=1;exitX=0.75;exitY=1;exitDx=0;exitDy=0;entryX=0;entryY=0.5;entryDx=0;entryDy=0;endArrow=none;endFill=0;" edge="1" parent="1" target="Njh6gPiwi0WYRp7ecPLT-49">
          <mxGeometry relative="1" as="geometry">
            <mxPoint x="1740" y="1220" as="sourcePoint" />
            <mxPoint x="1810" y="1390" as="targetPoint" />
            <Array as="points">
              <mxPoint x="1740" y="1200" />
              <mxPoint x="1720" y="1200" />
              <mxPoint x="1720" y="1310" />
            </Array>
          </mxGeometry>
        </mxCell>
        <mxCell id="Njh6gPiwi0WYRp7ecPLT-6" style="edgeStyle=orthogonalEdgeStyle;rounded=0;orthogonalLoop=1;jettySize=auto;html=1;entryX=0.5;entryY=0;entryDx=0;entryDy=0;endArrow=none;endFill=0;" edge="1" parent="1" source="Njh6gPiwi0WYRp7ecPLT-11" target="Njh6gPiwi0WYRp7ecPLT-91">
          <mxGeometry relative="1" as="geometry">
            <Array as="points">
              <mxPoint x="1750" y="1240" />
              <mxPoint x="2550" y="1240" />
            </Array>
            <mxPoint x="1960" y="1220" as="sourcePoint" />
            <mxPoint x="2439.9999999999995" y="1557" as="targetPoint" />
          </mxGeometry>
        </mxCell>
        <mxCell id="Njh6gPiwi0WYRp7ecPLT-7" value="(1,1)" style="edgeLabel;html=1;align=center;verticalAlign=middle;resizable=0;points=[];" connectable="0" vertex="1" parent="Njh6gPiwi0WYRp7ecPLT-6">
          <mxGeometry x="-0.9537" relative="1" as="geometry">
            <mxPoint x="764" y="280" as="offset" />
          </mxGeometry>
        </mxCell>
        <mxCell id="Njh6gPiwi0WYRp7ecPLT-8" style="edgeStyle=orthogonalEdgeStyle;rounded=0;orthogonalLoop=1;jettySize=auto;html=1;exitX=1;exitY=0.75;exitDx=0;exitDy=0;endArrow=none;endFill=0;entryX=0.5;entryY=0;entryDx=0;entryDy=0;" edge="1" parent="1" source="Njh6gPiwi0WYRp7ecPLT-11" target="Njh6gPiwi0WYRp7ecPLT-122">
          <mxGeometry relative="1" as="geometry">
            <Array as="points">
              <mxPoint x="1780" y="1205" />
              <mxPoint x="1780" y="1220" />
              <mxPoint x="2670" y="1220" />
            </Array>
          </mxGeometry>
        </mxCell>
        <mxCell id="Njh6gPiwi0WYRp7ecPLT-9" style="edgeStyle=orthogonalEdgeStyle;rounded=0;orthogonalLoop=1;jettySize=auto;html=1;exitX=1;exitY=0.25;exitDx=0;exitDy=0;entryX=0.653;entryY=0.004;entryDx=0;entryDy=0;entryPerimeter=0;endArrow=none;endFill=0;" edge="1" parent="1" target="Njh6gPiwi0WYRp7ecPLT-11">
          <mxGeometry relative="1" as="geometry">
            <mxPoint x="1659.94" y="1163.8399999999997" as="targetPoint" />
            <mxPoint x="1740.94" y="1086.1533333333332" as="sourcePoint" />
            <Array as="points">
              <mxPoint x="1741" y="1088" />
              <mxPoint x="1725" y="1088" />
              <mxPoint x="1725" y="1160" />
            </Array>
          </mxGeometry>
        </mxCell>
        <mxCell id="Njh6gPiwi0WYRp7ecPLT-10" value="é destino de" style="edgeLabel;html=1;align=center;verticalAlign=middle;resizable=0;points=[];" connectable="0" vertex="1" parent="Njh6gPiwi0WYRp7ecPLT-9">
          <mxGeometry x="0.6672" y="1" relative="1" as="geometry">
            <mxPoint x="-1" y="-10" as="offset" />
          </mxGeometry>
        </mxCell>
        <mxCell id="Njh6gPiwi0WYRp7ecPLT-11" value="Área" style="whiteSpace=wrap;html=1;align=center;" vertex="1" parent="1">
          <mxGeometry x="1660" y="1160" width="100" height="60" as="geometry" />
        </mxCell>
        <mxCell id="Njh6gPiwi0WYRp7ecPLT-12" style="edgeStyle=orthogonalEdgeStyle;rounded=0;orthogonalLoop=1;jettySize=auto;html=1;exitX=1;exitY=0.75;exitDx=0;exitDy=0;entryX=0;entryY=0.5;entryDx=0;entryDy=0;endArrow=none;endFill=0;" edge="1" parent="1" source="Njh6gPiwi0WYRp7ecPLT-14" target="Njh6gPiwi0WYRp7ecPLT-71">
          <mxGeometry relative="1" as="geometry" />
        </mxCell>
        <mxCell id="Njh6gPiwi0WYRp7ecPLT-13" style="edgeStyle=orthogonalEdgeStyle;rounded=0;orthogonalLoop=1;jettySize=auto;html=1;endArrow=none;endFill=0;startArrow=block;startFill=0;" edge="1" parent="1" source="Njh6gPiwi0WYRp7ecPLT-14">
          <mxGeometry relative="1" as="geometry">
            <mxPoint x="725" y="1360" as="targetPoint" />
          </mxGeometry>
        </mxCell>
        <mxCell id="Njh6gPiwi0WYRp7ecPLT-14" value="Item" style="whiteSpace=wrap;html=1;align=center;" vertex="1" parent="1">
          <mxGeometry x="675" y="1270" width="100" height="40" as="geometry" />
        </mxCell>
        <mxCell id="Njh6gPiwi0WYRp7ecPLT-15" style="edgeStyle=orthogonalEdgeStyle;rounded=0;orthogonalLoop=1;jettySize=auto;html=1;exitX=0.5;exitY=0;exitDx=0;exitDy=0;entryX=0.5;entryY=1;entryDx=0;entryDy=0;endArrow=none;endFill=0;" edge="1" parent="1" source="Njh6gPiwi0WYRp7ecPLT-16" target="Njh6gPiwi0WYRp7ecPLT-41">
          <mxGeometry relative="1" as="geometry" />
        </mxCell>
        <mxCell id="Njh6gPiwi0WYRp7ecPLT-16" value="Região" style="whiteSpace=wrap;html=1;align=center;" vertex="1" parent="1">
          <mxGeometry x="2070" y="1170" width="100" height="40" as="geometry" />
        </mxCell>
        <mxCell id="Njh6gPiwi0WYRp7ecPLT-17" value="Personagem" style="whiteSpace=wrap;html=1;align=center;" vertex="1" parent="1">
          <mxGeometry x="1500" y="1478" width="100" height="40" as="geometry" />
        </mxCell>
        <mxCell id="Njh6gPiwi0WYRp7ecPLT-18" value="" style="endArrow=none;html=1;rounded=0;entryX=0;entryY=0.5;entryDx=0;entryDy=0;" edge="1" parent="1" target="Njh6gPiwi0WYRp7ecPLT-16">
          <mxGeometry relative="1" as="geometry">
            <mxPoint x="1950" y="1189.6599999999999" as="sourcePoint" />
            <mxPoint x="2050" y="1190" as="targetPoint" />
          </mxGeometry>
        </mxCell>
        <mxCell id="Njh6gPiwi0WYRp7ecPLT-19" style="edgeStyle=orthogonalEdgeStyle;rounded=0;orthogonalLoop=1;jettySize=auto;html=1;entryX=0.5;entryY=0;entryDx=0;entryDy=0;endArrow=none;endFill=0;" edge="1" parent="1">
          <mxGeometry relative="1" as="geometry">
            <mxPoint x="725" y="1210" as="sourcePoint" />
            <mxPoint x="725" y="1270" as="targetPoint" />
          </mxGeometry>
        </mxCell>
        <mxCell id="Njh6gPiwi0WYRp7ecPLT-20" value="(1, 1)" style="edgeLabel;html=1;align=center;verticalAlign=middle;resizable=0;points=[];" connectable="0" vertex="1" parent="Njh6gPiwi0WYRp7ecPLT-19">
          <mxGeometry x="0.6437" relative="1" as="geometry">
            <mxPoint y="1" as="offset" />
          </mxGeometry>
        </mxCell>
        <mxCell id="Njh6gPiwi0WYRp7ecPLT-21" value="contém" style="shape=rhombus;perimeter=rhombusPerimeter;whiteSpace=wrap;html=1;align=center;" vertex="1" parent="1">
          <mxGeometry x="680" y="1150" width="90" height="60" as="geometry" />
        </mxCell>
        <mxCell id="Njh6gPiwi0WYRp7ecPLT-22" style="edgeStyle=orthogonalEdgeStyle;rounded=0;orthogonalLoop=1;jettySize=auto;html=1;entryX=1;entryY=0.5;entryDx=0;entryDy=0;endArrow=none;endFill=0;" edge="1" parent="1" source="Njh6gPiwi0WYRp7ecPLT-24" target="Njh6gPiwi0WYRp7ecPLT-4">
          <mxGeometry relative="1" as="geometry" />
        </mxCell>
        <mxCell id="Njh6gPiwi0WYRp7ecPLT-23" value="(0, N)" style="edgeLabel;html=1;align=center;verticalAlign=middle;resizable=0;points=[];" connectable="0" vertex="1" parent="Njh6gPiwi0WYRp7ecPLT-22">
          <mxGeometry x="0.4956" y="1" relative="1" as="geometry">
            <mxPoint x="2" y="-11" as="offset" />
          </mxGeometry>
        </mxCell>
        <mxCell id="Njh6gPiwi0WYRp7ecPLT-24" value="contida em" style="shape=rhombus;perimeter=rhombusPerimeter;whiteSpace=wrap;html=1;align=center;" vertex="1" parent="1">
          <mxGeometry x="1500" y="1155" width="90" height="50" as="geometry" />
        </mxCell>
        <mxCell id="Njh6gPiwi0WYRp7ecPLT-25" value="pertence a" style="shape=rhombus;perimeter=rhombusPerimeter;whiteSpace=wrap;html=1;align=center;" vertex="1" parent="1">
          <mxGeometry x="1860" y="1170" width="90" height="40" as="geometry" />
        </mxCell>
        <mxCell id="Njh6gPiwi0WYRp7ecPLT-26" value="" style="shape=link;html=1;rounded=0;entryX=1;entryY=0.5;entryDx=0;entryDy=0;exitX=0;exitY=0.5;exitDx=0;exitDy=0;" edge="1" parent="1" source="Njh6gPiwi0WYRp7ecPLT-25" target="Njh6gPiwi0WYRp7ecPLT-11">
          <mxGeometry relative="1" as="geometry">
            <mxPoint x="1790" y="1210" as="sourcePoint" />
            <mxPoint x="1950" y="1210" as="targetPoint" />
          </mxGeometry>
        </mxCell>
        <mxCell id="Njh6gPiwi0WYRp7ecPLT-27" value="(1, N)" style="edgeLabel;html=1;align=center;verticalAlign=middle;resizable=0;points=[];" connectable="0" vertex="1" parent="Njh6gPiwi0WYRp7ecPLT-26">
          <mxGeometry x="-0.3945" y="1" relative="1" as="geometry">
            <mxPoint x="-40" y="-11" as="offset" />
          </mxGeometry>
        </mxCell>
        <mxCell id="Njh6gPiwi0WYRp7ecPLT-28" value="(1,1)" style="resizable=0;html=1;whiteSpace=wrap;align=right;verticalAlign=bottom;" connectable="0" vertex="1" parent="1">
          <mxGeometry x="2070" y="1190" as="geometry" />
        </mxCell>
        <mxCell id="Njh6gPiwi0WYRp7ecPLT-29" value="" style="endArrow=none;html=1;rounded=0;exitX=1;exitY=0.5;exitDx=0;exitDy=0;" edge="1" parent="1" source="Njh6gPiwi0WYRp7ecPLT-24">
          <mxGeometry relative="1" as="geometry">
            <mxPoint x="1620" y="1180" as="sourcePoint" />
            <mxPoint x="1660" y="1180" as="targetPoint" />
          </mxGeometry>
        </mxCell>
        <mxCell id="Njh6gPiwi0WYRp7ecPLT-30" value="(1, N)" style="edgeLabel;html=1;align=center;verticalAlign=middle;resizable=0;points=[];" connectable="0" vertex="1" parent="Njh6gPiwi0WYRp7ecPLT-29">
          <mxGeometry x="0.3911" y="-1" relative="1" as="geometry">
            <mxPoint y="-11" as="offset" />
          </mxGeometry>
        </mxCell>
        <mxCell id="Njh6gPiwi0WYRp7ecPLT-31" style="edgeStyle=orthogonalEdgeStyle;rounded=0;orthogonalLoop=1;jettySize=auto;html=1;endArrow=none;endFill=0;exitX=0.5;exitY=1;exitDx=0;exitDy=0;" edge="1" parent="1" source="Njh6gPiwi0WYRp7ecPLT-32" target="Njh6gPiwi0WYRp7ecPLT-11">
          <mxGeometry relative="1" as="geometry">
            <mxPoint x="1710" y="1140" as="sourcePoint" />
            <Array as="points">
              <mxPoint x="1660" y="1155" />
              <mxPoint x="1680" y="1155" />
            </Array>
          </mxGeometry>
        </mxCell>
        <mxCell id="Njh6gPiwi0WYRp7ecPLT-32" value="&lt;u&gt;id area&lt;/u&gt;" style="ellipse;whiteSpace=wrap;html=1;align=center;" vertex="1" parent="1">
          <mxGeometry x="1630" y="1115" width="60" height="20" as="geometry" />
        </mxCell>
        <mxCell id="Njh6gPiwi0WYRp7ecPLT-33" style="edgeStyle=orthogonalEdgeStyle;rounded=0;orthogonalLoop=1;jettySize=auto;html=1;exitX=0.5;exitY=1;exitDx=0;exitDy=0;entryX=0.5;entryY=0;entryDx=0;entryDy=0;endArrow=none;endFill=0;startArrow=none;startFill=0;" edge="1" parent="1" source="Njh6gPiwi0WYRp7ecPLT-210" target="Njh6gPiwi0WYRp7ecPLT-59">
          <mxGeometry relative="1" as="geometry">
            <Array as="points">
              <mxPoint x="1550" y="1780" />
              <mxPoint x="1490" y="1780" />
              <mxPoint x="1490" y="1850" />
            </Array>
          </mxGeometry>
        </mxCell>
        <mxCell id="Njh6gPiwi0WYRp7ecPLT-34" style="edgeStyle=orthogonalEdgeStyle;rounded=0;orthogonalLoop=1;jettySize=auto;html=1;exitX=0;exitY=0.5;exitDx=0;exitDy=0;entryX=1;entryY=0.5;entryDx=0;entryDy=0;endArrow=none;endFill=0;" edge="1" parent="1" source="Njh6gPiwi0WYRp7ecPLT-38" target="Njh6gPiwi0WYRp7ecPLT-100">
          <mxGeometry relative="1" as="geometry" />
        </mxCell>
        <mxCell id="Njh6gPiwi0WYRp7ecPLT-35" style="edgeStyle=orthogonalEdgeStyle;rounded=0;orthogonalLoop=1;jettySize=auto;html=1;endArrow=none;endFill=0;entryX=0;entryY=0.5;entryDx=0;entryDy=0;" edge="1" parent="1" source="Njh6gPiwi0WYRp7ecPLT-38" target="Njh6gPiwi0WYRp7ecPLT-124">
          <mxGeometry relative="1" as="geometry">
            <mxPoint x="1670" y="1680" as="targetPoint" />
          </mxGeometry>
        </mxCell>
        <mxCell id="Njh6gPiwi0WYRp7ecPLT-36" value="&lt;span style=&quot;color: rgba(0, 0, 0, 0); font-family: monospace; font-size: 0px; text-align: start; background-color: rgb(251, 251, 251);&quot;&gt;%3CmxGraphModel%3E%3Croot%3E%3CmxCell%20id%3D%220%22%2F%3E%3CmxCell%20id%3D%221%22%20parent%3D%220%22%2F%3E%3CmxCell%20id%3D%222%22%20value%3D%22(1%2C1)%22%20style%3D%22edgeLabel%3Bhtml%3D1%3Balign%3Dcenter%3BverticalAlign%3Dmiddle%3Bresizable%3D0%3Bpoints%3D%5B%5D%3B%22%20vertex%3D%221%22%20connectable%3D%220%22%20parent%3D%221%22%3E%3CmxGeometry%20x%3D%22449.85714285714266%22%20y%3D%22760%22%20as%3D%22geometry%22%2F%3E%3C%2FmxCell%3E%3C%2Froot%3E%3C%2FmxGraphModel%3E&lt;/span&gt;" style="edgeLabel;html=1;align=center;verticalAlign=middle;resizable=0;points=[];" connectable="0" vertex="1" parent="Njh6gPiwi0WYRp7ecPLT-35">
          <mxGeometry x="-0.0385" y="1" relative="1" as="geometry">
            <mxPoint as="offset" />
          </mxGeometry>
        </mxCell>
        <mxCell id="Njh6gPiwi0WYRp7ecPLT-37" value="(0, N)" style="edgeLabel;html=1;align=center;verticalAlign=middle;resizable=0;points=[];" connectable="0" vertex="1" parent="Njh6gPiwi0WYRp7ecPLT-35">
          <mxGeometry x="0.0844" relative="1" as="geometry">
            <mxPoint x="5" as="offset" />
          </mxGeometry>
        </mxCell>
        <mxCell id="Njh6gPiwi0WYRp7ecPLT-38" value="NPC" style="whiteSpace=wrap;html=1;align=center;" vertex="1" parent="1">
          <mxGeometry x="1500" y="1660" width="100" height="40" as="geometry" />
        </mxCell>
        <mxCell id="Njh6gPiwi0WYRp7ecPLT-39" value="nome" style="ellipse;whiteSpace=wrap;html=1;align=center;" vertex="1" parent="1">
          <mxGeometry x="2090" y="1110" width="60" height="20" as="geometry" />
        </mxCell>
        <mxCell id="Njh6gPiwi0WYRp7ecPLT-40" value="nome" style="ellipse;whiteSpace=wrap;html=1;align=center;" vertex="1" parent="1">
          <mxGeometry x="1630" y="1095" width="60" height="20" as="geometry" />
        </mxCell>
        <mxCell id="Njh6gPiwi0WYRp7ecPLT-41" value="&lt;u&gt;id regiao&lt;/u&gt;" style="ellipse;whiteSpace=wrap;html=1;align=center;" vertex="1" parent="1">
          <mxGeometry x="2090" y="1130" width="60" height="20" as="geometry" />
        </mxCell>
        <mxCell id="Njh6gPiwi0WYRp7ecPLT-42" value="" style="shape=link;html=1;rounded=0;entryX=0;entryY=0.5;entryDx=0;entryDy=0;exitX=1;exitY=0.5;exitDx=0;exitDy=0;" edge="1" parent="1" source="Njh6gPiwi0WYRp7ecPLT-21" target="Njh6gPiwi0WYRp7ecPLT-4">
          <mxGeometry relative="1" as="geometry">
            <mxPoint x="1575" y="1240" as="sourcePoint" />
            <mxPoint x="878" y="1180" as="targetPoint" />
          </mxGeometry>
        </mxCell>
        <mxCell id="Njh6gPiwi0WYRp7ecPLT-43" value="(1, N)" style="edgeLabel;html=1;align=center;verticalAlign=middle;resizable=0;points=[];" connectable="0" vertex="1" parent="Njh6gPiwi0WYRp7ecPLT-42">
          <mxGeometry x="0.719" relative="1" as="geometry">
            <mxPoint as="offset" />
          </mxGeometry>
        </mxCell>
        <mxCell id="Njh6gPiwi0WYRp7ecPLT-44" value="&lt;br&gt;&lt;span style=&quot;color: rgb(0, 0, 0); font-family: Helvetica; font-size: 11px; font-style: normal; font-variant-ligatures: normal; font-variant-caps: normal; font-weight: 400; letter-spacing: normal; orphans: 2; text-align: center; text-indent: 0px; text-transform: none; widows: 2; word-spacing: 0px; -webkit-text-stroke-width: 0px; white-space: nowrap; background-color: rgb(255, 255, 255); text-decoration-thickness: initial; text-decoration-style: initial; text-decoration-color: initial; display: inline !important; float: none;&quot;&gt;(0, N)&lt;/span&gt;&lt;div&gt;&lt;br/&gt;&lt;/div&gt;" style="edgeStyle=orthogonalEdgeStyle;rounded=0;orthogonalLoop=1;jettySize=auto;html=1;exitX=0.5;exitY=1;exitDx=0;exitDy=0;endArrow=none;endFill=0;entryX=1;entryY=0.5;entryDx=0;entryDy=0;" edge="1" parent="1" source="Njh6gPiwi0WYRp7ecPLT-46">
          <mxGeometry x="0.8261" relative="1" as="geometry">
            <mxPoint x="1577.35" y="1318" as="sourcePoint" />
            <mxPoint x="1307.44" y="1363" as="targetPoint" />
            <Array as="points">
              <mxPoint x="1627" y="1360" />
              <mxPoint x="1307" y="1360" />
            </Array>
            <mxPoint as="offset" />
          </mxGeometry>
        </mxCell>
        <mxCell id="Njh6gPiwi0WYRp7ecPLT-45" style="edgeStyle=orthogonalEdgeStyle;rounded=0;orthogonalLoop=1;jettySize=auto;html=1;entryX=0.25;entryY=1;entryDx=0;entryDy=0;endArrow=none;endFill=0;" edge="1" parent="1" source="Njh6gPiwi0WYRp7ecPLT-46" target="Njh6gPiwi0WYRp7ecPLT-11">
          <mxGeometry relative="1" as="geometry" />
        </mxCell>
        <mxCell id="Njh6gPiwi0WYRp7ecPLT-46" value="apresenta" style="shape=rhombus;perimeter=rhombusPerimeter;whiteSpace=wrap;html=1;align=center;" vertex="1" parent="1">
          <mxGeometry x="1582.41" y="1265" width="90" height="50" as="geometry" />
        </mxCell>
        <mxCell id="Njh6gPiwi0WYRp7ecPLT-47" style="edgeStyle=orthogonalEdgeStyle;rounded=0;orthogonalLoop=1;jettySize=auto;html=1;endArrow=none;endFill=0;" edge="1" parent="1" source="Njh6gPiwi0WYRp7ecPLT-49" target="Njh6gPiwi0WYRp7ecPLT-56">
          <mxGeometry relative="1" as="geometry">
            <Array as="points">
              <mxPoint x="2120" y="1310" />
            </Array>
          </mxGeometry>
        </mxCell>
        <mxCell id="Njh6gPiwi0WYRp7ecPLT-48" value="(1, 1)" style="edgeLabel;html=1;align=center;verticalAlign=middle;resizable=0;points=[];" connectable="0" vertex="1" parent="Njh6gPiwi0WYRp7ecPLT-47">
          <mxGeometry x="-0.5289" y="1" relative="1" as="geometry">
            <mxPoint x="-1" y="-7" as="offset" />
          </mxGeometry>
        </mxCell>
        <mxCell id="Njh6gPiwi0WYRp7ecPLT-49" value="apresenta" style="shape=rhombus;perimeter=rhombusPerimeter;whiteSpace=wrap;html=1;align=center;" vertex="1" parent="1">
          <mxGeometry x="1960" y="1275" width="120" height="70" as="geometry" />
        </mxCell>
        <mxCell id="Njh6gPiwi0WYRp7ecPLT-50" style="edgeStyle=orthogonalEdgeStyle;rounded=0;orthogonalLoop=1;jettySize=auto;html=1;endArrow=none;endFill=0;entryX=1;entryY=0.5;entryDx=0;entryDy=0;exitX=0.75;exitY=1;exitDx=0;exitDy=0;" edge="1" parent="1" source="Njh6gPiwi0WYRp7ecPLT-56" target="Njh6gPiwi0WYRp7ecPLT-113">
          <mxGeometry relative="1" as="geometry">
            <mxPoint x="1604.95" y="2070" as="targetPoint" />
            <Array as="points">
              <mxPoint x="2145" y="2065" />
            </Array>
            <mxPoint x="1820.0100000000002" y="1635" as="sourcePoint" />
          </mxGeometry>
        </mxCell>
        <mxCell id="Njh6gPiwi0WYRp7ecPLT-51" style="edgeStyle=orthogonalEdgeStyle;rounded=0;orthogonalLoop=1;jettySize=auto;html=1;exitX=0.5;exitY=1;exitDx=0;exitDy=0;entryX=0.75;entryY=0;entryDx=0;entryDy=0;endArrow=none;endFill=0;" edge="1" parent="1" source="Njh6gPiwi0WYRp7ecPLT-176" target="Njh6gPiwi0WYRp7ecPLT-70">
          <mxGeometry relative="1" as="geometry">
            <Array as="points">
              <mxPoint x="1905" y="1760" />
              <mxPoint x="1785" y="1760" />
            </Array>
          </mxGeometry>
        </mxCell>
        <mxCell id="Njh6gPiwi0WYRp7ecPLT-52" value="(1,1)" style="edgeLabel;html=1;align=center;verticalAlign=middle;resizable=0;points=[];" connectable="0" vertex="1" parent="Njh6gPiwi0WYRp7ecPLT-51">
          <mxGeometry x="0.2198" y="-3" relative="1" as="geometry">
            <mxPoint y="3" as="offset" />
          </mxGeometry>
        </mxCell>
        <mxCell id="Njh6gPiwi0WYRp7ecPLT-53" style="edgeStyle=orthogonalEdgeStyle;rounded=0;orthogonalLoop=1;jettySize=auto;html=1;exitX=0.25;exitY=0;exitDx=0;exitDy=0;entryX=1;entryY=0.5;entryDx=0;entryDy=0;endArrow=none;endFill=0;" edge="1" parent="1" source="Njh6gPiwi0WYRp7ecPLT-56" target="Njh6gPiwi0WYRp7ecPLT-191">
          <mxGeometry relative="1" as="geometry" />
        </mxCell>
        <mxCell id="Njh6gPiwi0WYRp7ecPLT-54" style="edgeStyle=orthogonalEdgeStyle;rounded=0;orthogonalLoop=1;jettySize=auto;html=1;exitX=1;exitY=0.25;exitDx=0;exitDy=0;entryX=0;entryY=0.5;entryDx=0;entryDy=0;endArrow=none;endFill=0;" edge="1" parent="1" source="Njh6gPiwi0WYRp7ecPLT-56" target="Njh6gPiwi0WYRp7ecPLT-102">
          <mxGeometry relative="1" as="geometry" />
        </mxCell>
        <mxCell id="Njh6gPiwi0WYRp7ecPLT-55" style="edgeStyle=orthogonalEdgeStyle;rounded=0;orthogonalLoop=1;jettySize=auto;html=1;exitX=1;exitY=0.75;exitDx=0;exitDy=0;entryX=0;entryY=0.5;entryDx=0;entryDy=0;endArrow=none;endFill=0;" edge="1" parent="1" source="Njh6gPiwi0WYRp7ecPLT-56" target="Njh6gPiwi0WYRp7ecPLT-283">
          <mxGeometry relative="1" as="geometry">
            <Array as="points">
              <mxPoint x="2180" y="1585" />
              <mxPoint x="2180" y="1707" />
            </Array>
          </mxGeometry>
        </mxCell>
        <mxCell id="Njh6gPiwi0WYRp7ecPLT-56" value="Jogador" style="whiteSpace=wrap;html=1;align=center;" vertex="1" parent="1">
          <mxGeometry x="2070" y="1555" width="100" height="40" as="geometry" />
        </mxCell>
        <mxCell id="Njh6gPiwi0WYRp7ecPLT-57" style="edgeStyle=orthogonalEdgeStyle;rounded=0;orthogonalLoop=1;jettySize=auto;html=1;exitX=0;exitY=0.75;exitDx=0;exitDy=0;jumpStyle=arc;endArrow=none;endFill=0;entryX=0;entryY=0.5;entryDx=0;entryDy=0;" edge="1" parent="1" source="Njh6gPiwi0WYRp7ecPLT-59" target="Njh6gPiwi0WYRp7ecPLT-241">
          <mxGeometry relative="1" as="geometry">
            <mxPoint x="1370" y="2211.4285714285716" as="targetPoint" />
            <Array as="points">
              <mxPoint x="1340" y="1880" />
              <mxPoint x="1340" y="2210" />
            </Array>
          </mxGeometry>
        </mxCell>
        <mxCell id="Njh6gPiwi0WYRp7ecPLT-58" value="(1,N)" style="edgeLabel;html=1;align=center;verticalAlign=middle;resizable=0;points=[];" connectable="0" vertex="1" parent="Njh6gPiwi0WYRp7ecPLT-57">
          <mxGeometry x="0.3807" y="1" relative="1" as="geometry">
            <mxPoint as="offset" />
          </mxGeometry>
        </mxCell>
        <mxCell id="Njh6gPiwi0WYRp7ecPLT-59" value="Inimigo" style="whiteSpace=wrap;html=1;align=center;" vertex="1" parent="1">
          <mxGeometry x="1430" y="1850" width="100" height="40" as="geometry" />
        </mxCell>
        <mxCell id="Njh6gPiwi0WYRp7ecPLT-60" style="edgeStyle=orthogonalEdgeStyle;rounded=0;orthogonalLoop=1;jettySize=auto;html=1;exitX=1;exitY=0.25;exitDx=0;exitDy=0;endArrow=none;endFill=0;jumpStyle=arc;" edge="1" parent="1" source="Njh6gPiwi0WYRp7ecPLT-66">
          <mxGeometry relative="1" as="geometry">
            <mxPoint x="2500" y="1860" as="targetPoint" />
          </mxGeometry>
        </mxCell>
        <mxCell id="Njh6gPiwi0WYRp7ecPLT-61" style="edgeStyle=orthogonalEdgeStyle;rounded=0;orthogonalLoop=1;jettySize=auto;html=1;exitX=0.25;exitY=1;exitDx=0;exitDy=0;endArrow=none;endFill=0;entryX=0.5;entryY=0;entryDx=0;entryDy=0;" edge="1" parent="1" source="Njh6gPiwi0WYRp7ecPLT-66" target="Njh6gPiwi0WYRp7ecPLT-164">
          <mxGeometry relative="1" as="geometry">
            <mxPoint x="1615.2857142857147" y="1900" as="targetPoint" />
          </mxGeometry>
        </mxCell>
        <mxCell id="Njh6gPiwi0WYRp7ecPLT-62" style="edgeStyle=orthogonalEdgeStyle;rounded=0;orthogonalLoop=1;jettySize=auto;html=1;exitX=0.75;exitY=1;exitDx=0;exitDy=0;entryX=0;entryY=0.5;entryDx=0;entryDy=0;endArrow=none;endFill=0;" edge="1" parent="1" source="Njh6gPiwi0WYRp7ecPLT-66" target="Njh6gPiwi0WYRp7ecPLT-185">
          <mxGeometry relative="1" as="geometry" />
        </mxCell>
        <mxCell id="Njh6gPiwi0WYRp7ecPLT-63" value="(0, N)" style="edgeLabel;html=1;align=center;verticalAlign=middle;resizable=0;points=[];" connectable="0" vertex="1" parent="Njh6gPiwi0WYRp7ecPLT-62">
          <mxGeometry x="-0.3783" relative="1" as="geometry">
            <mxPoint x="118" as="offset" />
          </mxGeometry>
        </mxCell>
        <mxCell id="Njh6gPiwi0WYRp7ecPLT-64" style="edgeStyle=orthogonalEdgeStyle;rounded=0;orthogonalLoop=1;jettySize=auto;html=1;exitX=1;exitY=0.75;exitDx=0;exitDy=0;entryX=1;entryY=0.5;entryDx=0;entryDy=0;jumpStyle=gap;endArrow=none;endFill=0;" edge="1" parent="1" source="Njh6gPiwi0WYRp7ecPLT-66" target="Njh6gPiwi0WYRp7ecPLT-241">
          <mxGeometry relative="1" as="geometry" />
        </mxCell>
        <mxCell id="Njh6gPiwi0WYRp7ecPLT-65" value="(1,N)" style="edgeLabel;html=1;align=center;verticalAlign=middle;resizable=0;points=[];" connectable="0" vertex="1" parent="Njh6gPiwi0WYRp7ecPLT-64">
          <mxGeometry x="0.8051" relative="1" as="geometry">
            <mxPoint as="offset" />
          </mxGeometry>
        </mxCell>
        <mxCell id="Njh6gPiwi0WYRp7ecPLT-66" value="Chefe" style="whiteSpace=wrap;html=1;align=center;" vertex="1" parent="1">
          <mxGeometry x="1590" y="1850" width="100" height="40" as="geometry" />
        </mxCell>
        <mxCell id="Njh6gPiwi0WYRp7ecPLT-67" style="edgeStyle=orthogonalEdgeStyle;rounded=0;orthogonalLoop=1;jettySize=auto;html=1;exitX=1;exitY=0.5;exitDx=0;exitDy=0;endArrow=none;endFill=0;entryX=0.5;entryY=1;entryDx=0;entryDy=0;jumpStyle=arc;" edge="1" parent="1" source="Njh6gPiwi0WYRp7ecPLT-70" target="Njh6gPiwi0WYRp7ecPLT-91">
          <mxGeometry relative="1" as="geometry">
            <mxPoint x="2040" y="1650" as="targetPoint" />
            <mxPoint x="1810" y="1820" as="sourcePoint" />
            <Array as="points">
              <mxPoint x="2550" y="1810" />
            </Array>
          </mxGeometry>
        </mxCell>
        <mxCell id="Njh6gPiwi0WYRp7ecPLT-68" value="(0,1)" style="edgeLabel;html=1;align=center;verticalAlign=middle;resizable=0;points=[];" connectable="0" vertex="1" parent="Njh6gPiwi0WYRp7ecPLT-67">
          <mxGeometry x="0.8118" y="-1" relative="1" as="geometry">
            <mxPoint x="-21" y="-71" as="offset" />
          </mxGeometry>
        </mxCell>
        <mxCell id="Njh6gPiwi0WYRp7ecPLT-69" style="edgeStyle=orthogonalEdgeStyle;rounded=0;orthogonalLoop=1;jettySize=auto;html=1;endArrow=none;endFill=0;entryX=1;entryY=0.5;entryDx=0;entryDy=0;jumpStyle=arc;" edge="1" parent="1" target="Njh6gPiwi0WYRp7ecPLT-119">
          <mxGeometry relative="1" as="geometry">
            <mxPoint x="1755" y="1797.4899999999998" as="sourcePoint" />
            <mxPoint x="1530" y="1942.4899999999998" as="targetPoint" />
            <Array as="points">
              <mxPoint x="1755" y="2015" />
            </Array>
          </mxGeometry>
        </mxCell>
        <mxCell id="Njh6gPiwi0WYRp7ecPLT-70" value="Ferreiro" style="whiteSpace=wrap;html=1;align=center;" vertex="1" parent="1">
          <mxGeometry x="1710" y="1790" width="100" height="40" as="geometry" />
        </mxCell>
        <mxCell id="Njh6gPiwi0WYRp7ecPLT-71" value="&lt;u&gt;id item&lt;/u&gt;" style="ellipse;whiteSpace=wrap;html=1;align=center;" vertex="1" parent="1">
          <mxGeometry x="790" y="1290" width="60" height="20" as="geometry" />
        </mxCell>
        <mxCell id="Njh6gPiwi0WYRp7ecPLT-72" value="nome" style="ellipse;whiteSpace=wrap;html=1;align=center;" vertex="1" parent="1">
          <mxGeometry x="790" y="1310" width="60" height="20" as="geometry" />
        </mxCell>
        <mxCell id="Njh6gPiwi0WYRp7ecPLT-73" value="valor" style="ellipse;whiteSpace=wrap;html=1;align=center;" vertex="1" parent="1">
          <mxGeometry x="790" y="1330" width="60" height="20" as="geometry" />
        </mxCell>
        <mxCell id="Njh6gPiwi0WYRp7ecPLT-74" value="id instancia" style="ellipse;whiteSpace=wrap;html=1;align=center;" vertex="1" parent="1">
          <mxGeometry x="1113" y="1110" width="70" height="30" as="geometry" />
        </mxCell>
        <mxCell id="Njh6gPiwi0WYRp7ecPLT-75" value="id item" style="ellipse;whiteSpace=wrap;html=1;align=center;" vertex="1" parent="1">
          <mxGeometry x="1120.5" y="1090" width="55" height="20" as="geometry" />
        </mxCell>
        <mxCell id="Njh6gPiwi0WYRp7ecPLT-76" style="edgeStyle=orthogonalEdgeStyle;rounded=0;orthogonalLoop=1;jettySize=auto;html=1;endArrow=none;endFill=0;dashed=1;dashPattern=1 1;exitX=0.937;exitY=0.671;exitDx=0;exitDy=0;exitPerimeter=0;" edge="1" parent="1" source="Njh6gPiwi0WYRp7ecPLT-74">
          <mxGeometry relative="1" as="geometry">
            <mxPoint x="1173" y="1129.71" as="sourcePoint" />
            <mxPoint x="1113" y="1129.71" as="targetPoint" />
            <Array as="points">
              <mxPoint x="1148" y="1130" />
            </Array>
          </mxGeometry>
        </mxCell>
        <mxCell id="Njh6gPiwi0WYRp7ecPLT-77" value="id area" style="ellipse;whiteSpace=wrap;html=1;align=center;" vertex="1" parent="1">
          <mxGeometry x="1120.5" y="1070" width="55" height="20" as="geometry" />
        </mxCell>
        <mxCell id="Njh6gPiwi0WYRp7ecPLT-78" value="" style="endArrow=none;html=1;rounded=0;entryX=0.5;entryY=0;entryDx=0;entryDy=0;" edge="1" parent="1" target="Njh6gPiwi0WYRp7ecPLT-70">
          <mxGeometry relative="1" as="geometry">
            <mxPoint x="1550" y="1750" as="sourcePoint" />
            <mxPoint x="1880" y="1760" as="targetPoint" />
            <Array as="points">
              <mxPoint x="1760" y="1750" />
              <mxPoint x="1760" y="1780" />
            </Array>
          </mxGeometry>
        </mxCell>
        <mxCell id="Njh6gPiwi0WYRp7ecPLT-79" value="Instância de NPC" style="shape=ext;margin=3;double=1;whiteSpace=wrap;html=1;align=center;" vertex="1" parent="1">
          <mxGeometry x="1257.5" y="1340" width="100" height="40" as="geometry" />
        </mxCell>
        <mxCell id="Njh6gPiwi0WYRp7ecPLT-80" value="&lt;br style=&quot;forced-color-adjust: none;&quot;&gt;&lt;span style=&quot;forced-color-adjust: none; color: rgb(0, 0, 0); font-family: Helvetica; font-size: 11px; font-style: normal; font-variant-ligatures: normal; font-variant-caps: normal; font-weight: 400; letter-spacing: normal; orphans: 2; text-align: center; text-indent: 0px; text-transform: none; widows: 2; word-spacing: 0px; -webkit-text-stroke-width: 0px; white-space: nowrap; background-color: rgb(255, 255, 255); text-decoration-thickness: initial; text-decoration-style: initial; text-decoration-color: initial; float: none; display: inline !important;&quot;&gt;(1, N)&lt;/span&gt;&lt;div style=&quot;forced-color-adjust: none;&quot;&gt;&lt;br style=&quot;forced-color-adjust: none; color: rgb(0, 0, 0); font-family: Helvetica; font-size: 11px; font-style: normal; font-variant-ligatures: normal; font-variant-caps: normal; font-weight: 400; letter-spacing: normal; orphans: 2; text-align: center; text-indent: 0px; text-transform: none; widows: 2; word-spacing: 0px; -webkit-text-stroke-width: 0px; white-space: nowrap; background-color: rgb(255, 255, 255); text-decoration-thickness: initial; text-decoration-style: initial; text-decoration-color: initial;&quot;&gt;&lt;br&gt;&lt;br&gt;&lt;/div&gt;" style="text;whiteSpace=wrap;html=1;" vertex="1" parent="1">
          <mxGeometry x="1670" y="1190" width="30" height="40" as="geometry" />
        </mxCell>
        <mxCell id="Njh6gPiwi0WYRp7ecPLT-81" value="&lt;br&gt;&lt;span style=&quot;color: rgb(0, 0, 0); font-family: Helvetica; font-size: 11px; font-style: normal; font-variant-ligatures: normal; font-variant-caps: normal; font-weight: 400; letter-spacing: normal; orphans: 2; text-align: center; text-indent: 0px; text-transform: none; widows: 2; word-spacing: 0px; -webkit-text-stroke-width: 0px; white-space: nowrap; background-color: rgb(255, 255, 255); text-decoration-thickness: initial; text-decoration-style: initial; text-decoration-color: initial; display: inline !important; float: none;&quot;&gt;(1, 1)&lt;/span&gt;&lt;div&gt;&lt;br/&gt;&lt;/div&gt;" style="edgeStyle=orthogonalEdgeStyle;rounded=0;orthogonalLoop=1;jettySize=auto;html=1;entryX=0;entryY=0.25;entryDx=0;entryDy=0;endArrow=none;endFill=0;exitX=0.5;exitY=1;exitDx=0;exitDy=0;" edge="1" parent="1">
          <mxGeometry x="-0.4546" y="-1" relative="1" as="geometry">
            <mxPoint x="1307.5" y="1641.5" as="sourcePoint" />
            <mxPoint x="1500" y="1668.5" as="targetPoint" />
            <Array as="points">
              <mxPoint x="1308" y="1669" />
              <mxPoint x="1450" y="1669" />
            </Array>
            <mxPoint as="offset" />
          </mxGeometry>
        </mxCell>
        <mxCell id="Njh6gPiwi0WYRp7ecPLT-82" value="contém" style="shape=rhombus;perimeter=rhombusPerimeter;whiteSpace=wrap;html=1;align=center;" vertex="1" parent="1">
          <mxGeometry x="1270" y="1593" width="80" height="50" as="geometry" />
        </mxCell>
        <mxCell id="Njh6gPiwi0WYRp7ecPLT-83" value="" style="shape=link;html=1;rounded=0;entryX=0.5;entryY=1;entryDx=0;entryDy=0;" edge="1" parent="1" source="Njh6gPiwi0WYRp7ecPLT-82" target="Njh6gPiwi0WYRp7ecPLT-79">
          <mxGeometry relative="1" as="geometry">
            <mxPoint x="1230" y="1190" as="sourcePoint" />
            <mxPoint x="1340" y="1190" as="targetPoint" />
          </mxGeometry>
        </mxCell>
        <mxCell id="Njh6gPiwi0WYRp7ecPLT-84" value="(1, N)" style="edgeLabel;html=1;align=center;verticalAlign=middle;resizable=0;points=[];" connectable="0" vertex="1" parent="Njh6gPiwi0WYRp7ecPLT-83">
          <mxGeometry x="0.719" relative="1" as="geometry">
            <mxPoint y="116" as="offset" />
          </mxGeometry>
        </mxCell>
        <mxCell id="Njh6gPiwi0WYRp7ecPLT-85" value="nome" style="ellipse;whiteSpace=wrap;html=1;align=center;" vertex="1" parent="1">
          <mxGeometry x="1520" y="1400" width="60" height="20" as="geometry" />
        </mxCell>
        <mxCell id="Njh6gPiwi0WYRp7ecPLT-86" value="(1, 1)" style="edgeLabel;html=1;align=center;verticalAlign=middle;resizable=0;points=[];" connectable="0" vertex="1" parent="1">
          <mxGeometry x="1689.9966666666664" y="1600" as="geometry">
            <mxPoint x="129" y="-286" as="offset" />
          </mxGeometry>
        </mxCell>
        <mxCell id="Njh6gPiwi0WYRp7ecPLT-87" value="" style="endArrow=none;html=1;rounded=0;entryX=0.5;entryY=1;entryDx=0;entryDy=0;exitX=0.5;exitY=0;exitDx=0;exitDy=0;" edge="1" parent="1" source="Njh6gPiwi0WYRp7ecPLT-17" target="Njh6gPiwi0WYRp7ecPLT-85">
          <mxGeometry relative="1" as="geometry">
            <mxPoint x="1950" y="1189.6599999999999" as="sourcePoint" />
            <mxPoint x="2070" y="1190" as="targetPoint" />
          </mxGeometry>
        </mxCell>
        <mxCell id="Njh6gPiwi0WYRp7ecPLT-88" style="edgeStyle=orthogonalEdgeStyle;rounded=0;orthogonalLoop=1;jettySize=auto;html=1;exitX=0;exitY=0.5;exitDx=0;exitDy=0;endArrow=none;endFill=0;startArrow=none;startFill=0;" edge="1" parent="1">
          <mxGeometry relative="1" as="geometry">
            <mxPoint x="1550" y="1582" as="sourcePoint" />
            <mxPoint x="1550" y="1660" as="targetPoint" />
          </mxGeometry>
        </mxCell>
        <mxCell id="Njh6gPiwi0WYRp7ecPLT-89" value="" style="endArrow=none;html=1;rounded=0;endFill=0;" edge="1" parent="1" source="Njh6gPiwi0WYRp7ecPLT-321">
          <mxGeometry width="50" height="50" relative="1" as="geometry">
            <mxPoint x="2070" y="1580" as="sourcePoint" />
            <mxPoint x="1550" y="1580" as="targetPoint" />
            <Array as="points" />
          </mxGeometry>
        </mxCell>
        <mxCell id="Njh6gPiwi0WYRp7ecPLT-90" style="edgeStyle=orthogonalEdgeStyle;rounded=0;orthogonalLoop=1;jettySize=auto;html=1;exitX=0.5;exitY=1;exitDx=0;exitDy=0;endArrow=none;endFill=0;" edge="1" parent="1" source="Njh6gPiwi0WYRp7ecPLT-122">
          <mxGeometry relative="1" as="geometry">
            <mxPoint x="2480" y="1860" as="targetPoint" />
            <Array as="points">
              <mxPoint x="2520" y="1860" />
              <mxPoint x="2490" y="1860" />
            </Array>
          </mxGeometry>
        </mxCell>
        <mxCell id="Njh6gPiwi0WYRp7ecPLT-91" value="abriga" style="shape=rhombus;perimeter=rhombusPerimeter;whiteSpace=wrap;html=1;align=center;" vertex="1" parent="1">
          <mxGeometry x="2490" y="1530.5" width="120" height="80" as="geometry" />
        </mxCell>
        <mxCell id="Njh6gPiwi0WYRp7ecPLT-92" value="força" style="ellipse;whiteSpace=wrap;html=1;align=center;" vertex="1" parent="1">
          <mxGeometry x="2280" y="1517.5" width="60" height="20" as="geometry" />
        </mxCell>
        <mxCell id="Njh6gPiwi0WYRp7ecPLT-93" value="destreza" style="ellipse;whiteSpace=wrap;html=1;align=center;" vertex="1" parent="1">
          <mxGeometry x="2280" y="1499" width="60" height="20" as="geometry" />
        </mxCell>
        <mxCell id="Njh6gPiwi0WYRp7ecPLT-94" value="fé" style="ellipse;whiteSpace=wrap;html=1;align=center;" vertex="1" parent="1">
          <mxGeometry x="2280" y="1482" width="60" height="20" as="geometry" />
        </mxCell>
        <mxCell id="Njh6gPiwi0WYRp7ecPLT-95" value="int" style="ellipse;whiteSpace=wrap;html=1;align=center;" vertex="1" parent="1">
          <mxGeometry x="2280" y="1462" width="60" height="20" as="geometry" />
        </mxCell>
        <mxCell id="Njh6gPiwi0WYRp7ecPLT-96" value="HP" style="ellipse;whiteSpace=wrap;html=1;align=center;" vertex="1" parent="1">
          <mxGeometry x="1520" y="1420" width="60" height="20" as="geometry" />
        </mxCell>
        <mxCell id="Njh6gPiwi0WYRp7ecPLT-97" value="resistência" style="ellipse;whiteSpace=wrap;html=1;align=center;" vertex="1" parent="1">
          <mxGeometry x="1400" y="1730" width="70" height="20" as="geometry" />
        </mxCell>
        <mxCell id="Njh6gPiwi0WYRp7ecPLT-98" value="fraqueza" style="ellipse;whiteSpace=wrap;html=1;align=center;" vertex="1" parent="1">
          <mxGeometry x="1400" y="1750" width="70" height="20" as="geometry" />
        </mxCell>
        <mxCell id="Njh6gPiwi0WYRp7ecPLT-99" value="&lt;u&gt;id personagem&lt;/u&gt;" style="ellipse;whiteSpace=wrap;html=1;align=center;" vertex="1" parent="1">
          <mxGeometry x="1505" y="1440" width="90" height="30" as="geometry" />
        </mxCell>
        <mxCell id="Njh6gPiwi0WYRp7ecPLT-100" value="está hostil" style="ellipse;whiteSpace=wrap;html=1;align=center;" vertex="1" parent="1">
          <mxGeometry x="1400" y="1710" width="70" height="20" as="geometry" />
        </mxCell>
        <mxCell id="Njh6gPiwi0WYRp7ecPLT-101" style="edgeStyle=orthogonalEdgeStyle;rounded=0;orthogonalLoop=1;jettySize=auto;html=1;exitX=0.5;exitY=1;exitDx=0;exitDy=0;endArrow=none;endFill=0;startArrow=none;startFill=0;entryX=0.5;entryY=0;entryDx=0;entryDy=0;" edge="1" parent="1" target="Njh6gPiwi0WYRp7ecPLT-66">
          <mxGeometry relative="1" as="geometry">
            <mxPoint x="1550" y="1770" as="sourcePoint" />
            <mxPoint x="1630" y="1910" as="targetPoint" />
            <Array as="points">
              <mxPoint x="1550" y="1750" />
              <mxPoint x="1640" y="1750" />
            </Array>
          </mxGeometry>
        </mxCell>
        <mxCell id="Njh6gPiwi0WYRp7ecPLT-102" value="peso máximo" style="ellipse;whiteSpace=wrap;html=1;align=center;dashed=1;" vertex="1" parent="1">
          <mxGeometry x="2200" y="1554" width="60" height="30" as="geometry" />
        </mxCell>
        <mxCell id="Njh6gPiwi0WYRp7ecPLT-103" value="stamina" style="ellipse;whiteSpace=wrap;html=1;align=center;dashed=1;" vertex="1" parent="1">
          <mxGeometry x="2200" y="1580" width="60" height="30" as="geometry" />
        </mxCell>
        <mxCell id="Njh6gPiwi0WYRp7ecPLT-104" value="vigor" style="ellipse;whiteSpace=wrap;html=1;align=center;" vertex="1" parent="1">
          <mxGeometry x="2280" y="1442" width="60" height="20" as="geometry" />
        </mxCell>
        <mxCell id="Njh6gPiwi0WYRp7ecPLT-105" value="vitalidade" style="ellipse;whiteSpace=wrap;html=1;align=center;" vertex="1" parent="1">
          <mxGeometry x="2280" y="1422" width="60" height="20" as="geometry" />
        </mxCell>
        <mxCell id="Njh6gPiwi0WYRp7ecPLT-106" value="" style="edgeStyle=orthogonalEdgeStyle;rounded=0;orthogonalLoop=1;jettySize=auto;html=1;endArrow=none;endFill=0;" edge="1" parent="1" source="Njh6gPiwi0WYRp7ecPLT-4" target="Njh6gPiwi0WYRp7ecPLT-108">
          <mxGeometry relative="1" as="geometry">
            <mxPoint x="1148" y="1530" as="targetPoint" />
            <mxPoint x="1148" y="1200" as="sourcePoint" />
          </mxGeometry>
        </mxCell>
        <mxCell id="Njh6gPiwi0WYRp7ecPLT-108" value="está em" style="shape=rhombus;perimeter=rhombusPerimeter;whiteSpace=wrap;html=1;align=center;" vertex="1" parent="1">
          <mxGeometry x="1103" y="1378" width="90" height="60" as="geometry" />
        </mxCell>
        <mxCell id="Njh6gPiwi0WYRp7ecPLT-109" style="edgeStyle=orthogonalEdgeStyle;rounded=0;orthogonalLoop=1;jettySize=auto;html=1;exitX=0;exitY=0.5;exitDx=0;exitDy=0;entryX=1;entryY=0.5;entryDx=0;entryDy=0;endArrow=none;endFill=0;" edge="1" parent="1" source="Njh6gPiwi0WYRp7ecPLT-112" target="Njh6gPiwi0WYRp7ecPLT-132">
          <mxGeometry relative="1" as="geometry" />
        </mxCell>
        <mxCell id="Njh6gPiwi0WYRp7ecPLT-110" style="edgeStyle=orthogonalEdgeStyle;rounded=0;orthogonalLoop=1;jettySize=auto;html=1;exitX=0.25;exitY=1;exitDx=0;exitDy=0;entryX=0.5;entryY=0;entryDx=0;entryDy=0;endArrow=none;endFill=0;" edge="1" parent="1" source="Njh6gPiwi0WYRp7ecPLT-112" target="Njh6gPiwi0WYRp7ecPLT-299">
          <mxGeometry relative="1" as="geometry" />
        </mxCell>
        <mxCell id="Njh6gPiwi0WYRp7ecPLT-111" value="(1,1)" style="edgeLabel;html=1;align=center;verticalAlign=middle;resizable=0;points=[];fontFamily=Helvetica;fontSize=11;fontColor=default;labelBackgroundColor=default;" connectable="0" vertex="1" parent="Njh6gPiwi0WYRp7ecPLT-110">
          <mxGeometry x="0.8282" y="2" relative="1" as="geometry">
            <mxPoint as="offset" />
          </mxGeometry>
        </mxCell>
        <mxCell id="Njh6gPiwi0WYRp7ecPLT-112" value="Inventário" style="whiteSpace=wrap;html=1;align=center;" vertex="1" parent="1">
          <mxGeometry x="1098" y="1630" width="100" height="40" as="geometry" />
        </mxCell>
        <mxCell id="Njh6gPiwi0WYRp7ecPLT-113" value="possui" style="shape=rhombus;perimeter=rhombusPerimeter;whiteSpace=wrap;html=1;align=center;" vertex="1" parent="1">
          <mxGeometry x="1514.94" y="2040" width="90" height="50" as="geometry" />
        </mxCell>
        <mxCell id="Njh6gPiwi0WYRp7ecPLT-114" value="" style="shape=link;html=1;rounded=0;exitX=0.5;exitY=1;exitDx=0;exitDy=0;" edge="1" parent="1" source="Njh6gPiwi0WYRp7ecPLT-112" target="Njh6gPiwi0WYRp7ecPLT-113">
          <mxGeometry relative="1" as="geometry">
            <mxPoint x="1113" y="1940" as="sourcePoint" />
            <mxPoint x="1273" y="1940" as="targetPoint" />
            <Array as="points">
              <mxPoint x="1148" y="1985" />
              <mxPoint x="1148" y="2065" />
            </Array>
          </mxGeometry>
        </mxCell>
        <mxCell id="Njh6gPiwi0WYRp7ecPLT-115" value="(1,1)" style="resizable=0;html=1;whiteSpace=wrap;align=right;verticalAlign=bottom;" connectable="0" vertex="1" parent="Njh6gPiwi0WYRp7ecPLT-114">
          <mxGeometry x="1" relative="1" as="geometry">
            <mxPoint x="-10" as="offset" />
          </mxGeometry>
        </mxCell>
        <mxCell id="Njh6gPiwi0WYRp7ecPLT-116" value="(1,1)" style="resizable=0;html=1;whiteSpace=wrap;align=right;verticalAlign=bottom;" connectable="0" vertex="1" parent="1">
          <mxGeometry x="1634.942857142857" y="2065" as="geometry" />
        </mxCell>
        <mxCell id="Njh6gPiwi0WYRp7ecPLT-117" value="(0,1)" style="edgeLabel;html=1;align=center;verticalAlign=middle;resizable=0;points=[];" connectable="0" vertex="1" parent="1">
          <mxGeometry x="2640" y="1567.0014285714287" as="geometry" />
        </mxCell>
        <mxCell id="Njh6gPiwi0WYRp7ecPLT-118" value="(1,1)" style="resizable=0;html=1;whiteSpace=wrap;align=right;verticalAlign=bottom;" connectable="0" vertex="1" parent="1">
          <mxGeometry x="1604.9428571428573" y="2015" as="geometry" />
        </mxCell>
        <mxCell id="Njh6gPiwi0WYRp7ecPLT-119" value="possui" style="shape=rhombus;perimeter=rhombusPerimeter;whiteSpace=wrap;html=1;align=center;" vertex="1" parent="1">
          <mxGeometry x="1464.94" y="1990" width="90" height="50" as="geometry" />
        </mxCell>
        <mxCell id="Njh6gPiwi0WYRp7ecPLT-120" value="" style="shape=link;html=1;rounded=0;entryX=0;entryY=0.5;entryDx=0;entryDy=0;exitX=0.923;exitY=1.046;exitDx=0;exitDy=0;exitPerimeter=0;" edge="1" parent="1" source="Njh6gPiwi0WYRp7ecPLT-112" target="Njh6gPiwi0WYRp7ecPLT-119">
          <mxGeometry relative="1" as="geometry">
            <mxPoint x="1210" y="1650" as="sourcePoint" />
            <mxPoint x="1500" y="1995" as="targetPoint" />
            <Array as="points">
              <mxPoint x="1190" y="2015" />
            </Array>
          </mxGeometry>
        </mxCell>
        <mxCell id="Njh6gPiwi0WYRp7ecPLT-121" value="(1,1)" style="resizable=0;html=1;whiteSpace=wrap;align=right;verticalAlign=bottom;" connectable="0" vertex="1" parent="Njh6gPiwi0WYRp7ecPLT-120">
          <mxGeometry x="1" relative="1" as="geometry">
            <mxPoint x="-10" as="offset" />
          </mxGeometry>
        </mxCell>
        <mxCell id="Njh6gPiwi0WYRp7ecPLT-122" value="abriga" style="shape=rhombus;perimeter=rhombusPerimeter;whiteSpace=wrap;html=1;align=center;" vertex="1" parent="1">
          <mxGeometry x="2610" y="1460" width="120" height="80" as="geometry" />
        </mxCell>
        <mxCell id="Njh6gPiwi0WYRp7ecPLT-123" value="&lt;span style=&quot;font-size: 11px; background-color: rgb(255, 255, 255);&quot;&gt;(1,1)&lt;/span&gt;" style="text;html=1;align=center;verticalAlign=middle;resizable=0;points=[];autosize=1;strokeColor=none;fillColor=none;" vertex="1" parent="1">
          <mxGeometry x="2610" y="1413" width="50" height="30" as="geometry" />
        </mxCell>
        <mxCell id="Njh6gPiwi0WYRp7ecPLT-124" value="dialoga com" style="shape=rhombus;perimeter=rhombusPerimeter;whiteSpace=wrap;html=1;align=center;" vertex="1" parent="1">
          <mxGeometry x="1720" y="1650" width="100" height="60" as="geometry" />
        </mxCell>
        <mxCell id="Njh6gPiwi0WYRp7ecPLT-125" style="edgeStyle=orthogonalEdgeStyle;rounded=0;orthogonalLoop=1;jettySize=auto;html=1;endArrow=none;endFill=0;exitX=1;exitY=0.5;exitDx=0;exitDy=0;" edge="1" parent="1" source="Njh6gPiwi0WYRp7ecPLT-124" target="Njh6gPiwi0WYRp7ecPLT-56">
          <mxGeometry relative="1" as="geometry">
            <mxPoint x="1830" y="1680" as="sourcePoint" />
            <mxPoint x="2090" y="1600" as="targetPoint" />
            <Array as="points">
              <mxPoint x="2099" y="1680" />
            </Array>
          </mxGeometry>
        </mxCell>
        <mxCell id="Njh6gPiwi0WYRp7ecPLT-126" value="(0,N)" style="edgeLabel;html=1;align=center;verticalAlign=middle;resizable=0;points=[];" connectable="0" vertex="1" parent="Njh6gPiwi0WYRp7ecPLT-125">
          <mxGeometry x="-0.7645" relative="1" as="geometry">
            <mxPoint x="15" y="2" as="offset" />
          </mxGeometry>
        </mxCell>
        <mxCell id="Njh6gPiwi0WYRp7ecPLT-127" style="edgeStyle=orthogonalEdgeStyle;rounded=0;orthogonalLoop=1;jettySize=auto;html=1;entryX=0.75;entryY=0;entryDx=0;entryDy=0;jumpStyle=arc;endArrow=none;endFill=0;" edge="1" parent="1">
          <mxGeometry relative="1" as="geometry">
            <Array as="points">
              <mxPoint x="1790" y="1520" />
              <mxPoint x="1790" y="1551" />
              <mxPoint x="1585" y="1551" />
            </Array>
            <mxPoint x="1790" y="1520" as="sourcePoint" />
            <mxPoint x="1585" y="1661" as="targetPoint" />
          </mxGeometry>
        </mxCell>
        <mxCell id="Njh6gPiwi0WYRp7ecPLT-128" style="edgeStyle=orthogonalEdgeStyle;rounded=0;orthogonalLoop=1;jettySize=auto;html=1;exitX=0.5;exitY=0;exitDx=0;exitDy=0;entryX=0.5;entryY=1;entryDx=0;entryDy=0;endArrow=none;endFill=0;" edge="1" parent="1" source="Njh6gPiwi0WYRp7ecPLT-129">
          <mxGeometry relative="1" as="geometry">
            <mxPoint x="1784.94" y="1380" as="targetPoint" />
          </mxGeometry>
        </mxCell>
        <mxCell id="Njh6gPiwi0WYRp7ecPLT-129" value="Diálogo" style="whiteSpace=wrap;html=1;align=center;" vertex="1" parent="1">
          <mxGeometry x="1734.94" y="1390" width="100" height="40" as="geometry" />
        </mxCell>
        <mxCell id="Njh6gPiwi0WYRp7ecPLT-130" value="texto" style="ellipse;whiteSpace=wrap;html=1;align=center;" vertex="1" parent="1">
          <mxGeometry x="1754.94" y="1340" width="60" height="20" as="geometry" />
        </mxCell>
        <mxCell id="Njh6gPiwi0WYRp7ecPLT-131" value="(0, N)" style="edgeLabel;html=1;align=center;verticalAlign=middle;resizable=0;points=[];" connectable="0" vertex="1" parent="1">
          <mxGeometry x="1159.99782981704" y="1430.0022996638454" as="geometry">
            <mxPoint x="-12" y="-72" as="offset" />
          </mxGeometry>
        </mxCell>
        <mxCell id="Njh6gPiwi0WYRp7ecPLT-132" value="&lt;u&gt;id dono&lt;/u&gt;" style="ellipse;whiteSpace=wrap;html=1;align=center;" vertex="1" parent="1">
          <mxGeometry x="1000" y="1635" width="70" height="30" as="geometry" />
        </mxCell>
        <mxCell id="Njh6gPiwi0WYRp7ecPLT-133" value="&lt;u&gt;id inventario&lt;/u&gt;" style="ellipse;whiteSpace=wrap;html=1;align=center;" vertex="1" parent="1">
          <mxGeometry x="1000" y="1665" width="70" height="30" as="geometry" />
        </mxCell>
        <mxCell id="Njh6gPiwi0WYRp7ecPLT-134" value="mp" style="ellipse;whiteSpace=wrap;html=1;align=center;dashed=1;" vertex="1" parent="1">
          <mxGeometry x="2200" y="1610" width="60" height="20" as="geometry" />
        </mxCell>
        <mxCell id="Njh6gPiwi0WYRp7ecPLT-135" value="nível_atual" style="ellipse;whiteSpace=wrap;html=1;align=center;" vertex="1" parent="1">
          <mxGeometry x="2200" y="1630" width="60" height="20" as="geometry" />
        </mxCell>
        <mxCell id="Njh6gPiwi0WYRp7ecPLT-136" style="edgeStyle=orthogonalEdgeStyle;rounded=0;orthogonalLoop=1;jettySize=auto;html=1;endArrow=none;endFill=0;" edge="1" parent="1" source="Njh6gPiwi0WYRp7ecPLT-139">
          <mxGeometry relative="1" as="geometry">
            <mxPoint x="725" y="1500" as="targetPoint" />
          </mxGeometry>
        </mxCell>
        <mxCell id="Njh6gPiwi0WYRp7ecPLT-137" style="edgeStyle=orthogonalEdgeStyle;rounded=0;orthogonalLoop=1;jettySize=auto;html=1;exitX=1;exitY=0.75;exitDx=0;exitDy=0;endArrow=none;endFill=0;entryX=0.5;entryY=0;entryDx=0;entryDy=0;" edge="1" parent="1" source="Njh6gPiwi0WYRp7ecPLT-139" target="Njh6gPiwi0WYRp7ecPLT-217">
          <mxGeometry relative="1" as="geometry">
            <mxPoint x="800" y="1710" as="targetPoint" />
          </mxGeometry>
        </mxCell>
        <mxCell id="Njh6gPiwi0WYRp7ecPLT-138" value="(1,1)" style="edgeLabel;html=1;align=center;verticalAlign=middle;resizable=0;points=[];" connectable="0" vertex="1" parent="Njh6gPiwi0WYRp7ecPLT-137">
          <mxGeometry x="0.1699" y="-1" relative="1" as="geometry">
            <mxPoint as="offset" />
          </mxGeometry>
        </mxCell>
        <mxCell id="Njh6gPiwi0WYRp7ecPLT-139" value="Arma" style="whiteSpace=wrap;html=1;align=center;" vertex="1" parent="1">
          <mxGeometry x="675" y="1565" width="100" height="40" as="geometry" />
        </mxCell>
        <mxCell id="Njh6gPiwi0WYRp7ecPLT-140" style="edgeStyle=orthogonalEdgeStyle;rounded=0;orthogonalLoop=1;jettySize=auto;html=1;exitX=0.5;exitY=0;exitDx=0;exitDy=0;endArrow=none;endFill=0;" edge="1" parent="1" source="Njh6gPiwi0WYRp7ecPLT-142">
          <mxGeometry relative="1" as="geometry">
            <mxPoint x="740" y="1500" as="targetPoint" />
            <Array as="points">
              <mxPoint x="470" y="1555" />
              <mxPoint x="470" y="1500" />
            </Array>
          </mxGeometry>
        </mxCell>
        <mxCell id="Njh6gPiwi0WYRp7ecPLT-141" style="edgeStyle=orthogonalEdgeStyle;rounded=0;orthogonalLoop=1;jettySize=auto;html=1;exitX=0.5;exitY=1;exitDx=0;exitDy=0;endArrow=none;endFill=0;entryX=0.5;entryY=0;entryDx=0;entryDy=0;" edge="1" parent="1" source="Njh6gPiwi0WYRp7ecPLT-142" target="Njh6gPiwi0WYRp7ecPLT-143">
          <mxGeometry relative="1" as="geometry">
            <mxPoint x="460" y="1650" as="targetPoint" />
          </mxGeometry>
        </mxCell>
        <mxCell id="Njh6gPiwi0WYRp7ecPLT-142" value="Armadura" style="whiteSpace=wrap;html=1;align=center;" vertex="1" parent="1">
          <mxGeometry x="430" y="1555" width="85" height="40" as="geometry" />
        </mxCell>
        <mxCell id="Njh6gPiwi0WYRp7ecPLT-143" value="resistência" style="ellipse;whiteSpace=wrap;html=1;align=center;" vertex="1" parent="1">
          <mxGeometry x="438.75" y="1600" width="67.5" height="20" as="geometry" />
        </mxCell>
        <mxCell id="Njh6gPiwi0WYRp7ecPLT-144" value="dano" style="ellipse;whiteSpace=wrap;html=1;align=center;" vertex="1" parent="1">
          <mxGeometry x="615" y="1555" width="60" height="20" as="geometry" />
        </mxCell>
        <mxCell id="Njh6gPiwi0WYRp7ecPLT-145" value="crítico" style="ellipse;whiteSpace=wrap;html=1;align=center;" vertex="1" parent="1">
          <mxGeometry x="615" y="1575" width="60" height="20" as="geometry" />
        </mxCell>
        <mxCell id="Njh6gPiwi0WYRp7ecPLT-146" value="habilidade" style="ellipse;whiteSpace=wrap;html=1;align=center;" vertex="1" parent="1">
          <mxGeometry x="615" y="1595" width="60" height="20" as="geometry" />
        </mxCell>
        <mxCell id="Njh6gPiwi0WYRp7ecPLT-147" value="raridade" style="ellipse;whiteSpace=wrap;html=1;align=center;" vertex="1" parent="1">
          <mxGeometry x="790" y="1270" width="60" height="20" as="geometry" />
        </mxCell>
        <mxCell id="Njh6gPiwi0WYRp7ecPLT-148" style="edgeStyle=orthogonalEdgeStyle;rounded=0;orthogonalLoop=1;jettySize=auto;html=1;endArrow=none;endFill=0;exitX=0.5;exitY=0;exitDx=0;exitDy=0;" edge="1" parent="1" source="Njh6gPiwi0WYRp7ecPLT-150">
          <mxGeometry relative="1" as="geometry">
            <mxPoint x="720" y="1500" as="targetPoint" />
            <Array as="points">
              <mxPoint x="970" y="1500" />
            </Array>
          </mxGeometry>
        </mxCell>
        <mxCell id="Njh6gPiwi0WYRp7ecPLT-149" style="edgeStyle=orthogonalEdgeStyle;rounded=0;orthogonalLoop=1;jettySize=auto;html=1;exitX=0.5;exitY=1;exitDx=0;exitDy=0;entryX=0.5;entryY=0;entryDx=0;entryDy=0;endArrow=none;endFill=0;" edge="1" parent="1" source="Njh6gPiwi0WYRp7ecPLT-150" target="Njh6gPiwi0WYRp7ecPLT-151">
          <mxGeometry relative="1" as="geometry">
            <mxPoint x="880" y="1613" as="targetPoint" />
          </mxGeometry>
        </mxCell>
        <mxCell id="Njh6gPiwi0WYRp7ecPLT-150" value="Escudo" style="whiteSpace=wrap;html=1;align=center;" vertex="1" parent="1">
          <mxGeometry x="910" y="1565" width="100" height="40" as="geometry" />
        </mxCell>
        <mxCell id="Njh6gPiwi0WYRp7ecPLT-151" value="defesa" style="ellipse;whiteSpace=wrap;html=1;align=center;" vertex="1" parent="1">
          <mxGeometry x="925" y="1608" width="60" height="20" as="geometry" />
        </mxCell>
        <mxCell id="Njh6gPiwi0WYRp7ecPLT-152" style="edgeStyle=orthogonalEdgeStyle;rounded=0;orthogonalLoop=1;jettySize=auto;html=1;exitX=0.5;exitY=0;exitDx=0;exitDy=0;endArrow=none;endFill=0;" edge="1" parent="1" source="Njh6gPiwi0WYRp7ecPLT-156">
          <mxGeometry relative="1" as="geometry">
            <mxPoint x="725" y="1320" as="targetPoint" />
            <Array as="points">
              <mxPoint x="1023" y="1360" />
              <mxPoint x="725" y="1360" />
            </Array>
          </mxGeometry>
        </mxCell>
        <mxCell id="Njh6gPiwi0WYRp7ecPLT-153" style="edgeStyle=orthogonalEdgeStyle;rounded=0;orthogonalLoop=1;jettySize=auto;html=1;exitX=0.5;exitY=1;exitDx=0;exitDy=0;endArrow=none;endFill=0;" edge="1" parent="1" source="Njh6gPiwi0WYRp7ecPLT-258">
          <mxGeometry relative="1" as="geometry">
            <mxPoint x="1022.2424242424242" y="1450" as="targetPoint" />
          </mxGeometry>
        </mxCell>
        <mxCell id="Njh6gPiwi0WYRp7ecPLT-154" style="edgeStyle=orthogonalEdgeStyle;rounded=0;orthogonalLoop=1;jettySize=auto;html=1;exitX=1;exitY=0.5;exitDx=0;exitDy=0;entryX=0;entryY=0.5;entryDx=0;entryDy=0;jumpStyle=arc;endArrow=none;endFill=0;" edge="1" parent="1" source="Njh6gPiwi0WYRp7ecPLT-156" target="Njh6gPiwi0WYRp7ecPLT-157">
          <mxGeometry relative="1" as="geometry">
            <Array as="points">
              <mxPoint x="1100" y="1423" />
              <mxPoint x="1100" y="1500" />
            </Array>
          </mxGeometry>
        </mxCell>
        <mxCell id="Njh6gPiwi0WYRp7ecPLT-155" style="edgeStyle=orthogonalEdgeStyle;rounded=0;orthogonalLoop=1;jettySize=auto;html=1;exitX=0.5;exitY=1;exitDx=0;exitDy=0;entryX=0.5;entryY=0;entryDx=0;entryDy=0;endArrow=none;endFill=0;" edge="1" parent="1" source="Njh6gPiwi0WYRp7ecPLT-156" target="Njh6gPiwi0WYRp7ecPLT-257">
          <mxGeometry relative="1" as="geometry" />
        </mxCell>
        <mxCell id="Njh6gPiwi0WYRp7ecPLT-156" value="Consumível" style="whiteSpace=wrap;html=1;align=center;" vertex="1" parent="1">
          <mxGeometry x="980" y="1375" width="85" height="40" as="geometry" />
        </mxCell>
        <mxCell id="Njh6gPiwi0WYRp7ecPLT-157" value="é consumido por" style="shape=rhombus;perimeter=rhombusPerimeter;whiteSpace=wrap;html=1;align=center;" vertex="1" parent="1">
          <mxGeometry x="1160" y="1472.5" width="120" height="55" as="geometry" />
        </mxCell>
        <mxCell id="Njh6gPiwi0WYRp7ecPLT-158" value="(1, N)" style="edgeLabel;html=1;align=center;verticalAlign=middle;resizable=0;points=[];" connectable="0" vertex="1" parent="1">
          <mxGeometry x="1140.0035063550722" y="1420.00376851578" as="geometry">
            <mxPoint x="-50" y="7" as="offset" />
          </mxGeometry>
        </mxCell>
        <mxCell id="Njh6gPiwi0WYRp7ecPLT-159" style="edgeStyle=orthogonalEdgeStyle;rounded=0;orthogonalLoop=1;jettySize=auto;html=1;exitX=1;exitY=0.5;exitDx=0;exitDy=0;endArrow=none;endFill=0;jumpStyle=arc;jumpSize=12;" edge="1" parent="1" source="Njh6gPiwi0WYRp7ecPLT-161">
          <mxGeometry relative="1" as="geometry">
            <mxPoint x="1500" y="1500" as="targetPoint" />
          </mxGeometry>
        </mxCell>
        <mxCell id="Njh6gPiwi0WYRp7ecPLT-160" value="" style="edgeStyle=orthogonalEdgeStyle;rounded=0;orthogonalLoop=1;jettySize=auto;html=1;exitX=1;exitY=0.5;exitDx=0;exitDy=0;endArrow=none;endFill=0;jumpStyle=arc;jumpSize=12;" edge="1" parent="1" source="Njh6gPiwi0WYRp7ecPLT-157" target="Njh6gPiwi0WYRp7ecPLT-161">
          <mxGeometry relative="1" as="geometry">
            <mxPoint x="1263" y="1500" as="sourcePoint" />
            <mxPoint x="1500" y="1500" as="targetPoint" />
          </mxGeometry>
        </mxCell>
        <mxCell id="Njh6gPiwi0WYRp7ecPLT-161" value="&lt;span style=&quot;color: rgb(0, 0, 0); font-family: Helvetica; font-size: 11px; font-style: normal; font-variant-ligatures: normal; font-variant-caps: normal; font-weight: 400; letter-spacing: normal; orphans: 2; text-align: center; text-indent: 0px; text-transform: none; widows: 2; word-spacing: 0px; -webkit-text-stroke-width: 0px; white-space: nowrap; background-color: rgb(255, 255, 255); text-decoration-thickness: initial; text-decoration-style: initial; text-decoration-color: initial; display: inline !important; float: none;&quot;&gt;(1, 1)&lt;/span&gt;" style="text;whiteSpace=wrap;html=1;" vertex="1" parent="1">
          <mxGeometry x="1440" y="1480" width="30" height="40" as="geometry" />
        </mxCell>
        <mxCell id="Njh6gPiwi0WYRp7ecPLT-162" value="seções" style="ellipse;whiteSpace=wrap;html=1;align=center;" vertex="1" parent="1">
          <mxGeometry x="1000" y="1695" width="70" height="30" as="geometry" />
        </mxCell>
        <mxCell id="Njh6gPiwi0WYRp7ecPLT-163" value="duração" style="ellipse;whiteSpace=wrap;html=1;align=center;" vertex="1" parent="1">
          <mxGeometry x="992.5" y="1458" width="60" height="20" as="geometry" />
        </mxCell>
        <mxCell id="Njh6gPiwi0WYRp7ecPLT-164" value="lembrança" style="ellipse;whiteSpace=wrap;html=1;align=center;" vertex="1" parent="1">
          <mxGeometry x="1579.94" y="1900" width="70" height="20" as="geometry" />
        </mxCell>
        <mxCell id="Njh6gPiwi0WYRp7ecPLT-165" style="edgeStyle=orthogonalEdgeStyle;rounded=0;orthogonalLoop=1;jettySize=auto;html=1;exitX=0.5;exitY=1;exitDx=0;exitDy=0;entryX=0.5;entryY=0;entryDx=0;entryDy=0;endArrow=none;endFill=0;" edge="1" parent="1" source="Njh6gPiwi0WYRp7ecPLT-59">
          <mxGeometry relative="1" as="geometry">
            <mxPoint x="1479.94" y="1900" as="targetPoint" />
          </mxGeometry>
        </mxCell>
        <mxCell id="Njh6gPiwi0WYRp7ecPLT-166" value="dano base" style="ellipse;whiteSpace=wrap;html=1;align=center;" vertex="1" parent="1">
          <mxGeometry x="1450" y="1900" width="60" height="20" as="geometry" />
        </mxCell>
        <mxCell id="Njh6gPiwi0WYRp7ecPLT-167" value="dano base" style="ellipse;whiteSpace=wrap;html=1;align=center;" vertex="1" parent="1">
          <mxGeometry x="1584.94" y="1920" width="60" height="20" as="geometry" />
        </mxCell>
        <mxCell id="Njh6gPiwi0WYRp7ecPLT-168" value="drop runas" style="ellipse;whiteSpace=wrap;html=1;align=center;" vertex="1" parent="1">
          <mxGeometry x="1400" y="1770" width="70" height="20" as="geometry" />
        </mxCell>
        <mxCell id="Njh6gPiwi0WYRp7ecPLT-169" value="fala" style="shape=rhombus;perimeter=rhombusPerimeter;whiteSpace=wrap;html=1;align=center;" vertex="1" parent="1">
          <mxGeometry x="1735" y="1459" width="110" height="60" as="geometry" />
        </mxCell>
        <mxCell id="Njh6gPiwi0WYRp7ecPLT-170" value="(1,N)" style="edgeLabel;html=1;align=center;verticalAlign=middle;resizable=0;points=[];" connectable="0" vertex="1" parent="1">
          <mxGeometry x="1800.0011152083134" y="1531.9961269255955" as="geometry">
            <mxPoint x="6" y="5" as="offset" />
          </mxGeometry>
        </mxCell>
        <mxCell id="Njh6gPiwi0WYRp7ecPLT-171" value="(0,N)" style="edgeLabel;html=1;align=center;verticalAlign=middle;resizable=0;points=[];" connectable="0" vertex="1" parent="1">
          <mxGeometry x="1780.0011152083134" y="1621.9961269255955" as="geometry">
            <mxPoint x="27" y="-174" as="offset" />
          </mxGeometry>
        </mxCell>
        <mxCell id="Njh6gPiwi0WYRp7ecPLT-172" value="" style="shape=link;html=1;rounded=0;entryX=0.552;entryY=1.039;entryDx=0;entryDy=0;exitX=0.5;exitY=0;exitDx=0;exitDy=0;entryPerimeter=0;" edge="1" parent="1" source="Njh6gPiwi0WYRp7ecPLT-169" target="Njh6gPiwi0WYRp7ecPLT-129">
          <mxGeometry relative="1" as="geometry">
            <mxPoint x="1785" y="1515" as="sourcePoint" />
            <mxPoint x="1784.6399999999999" y="1430" as="targetPoint" />
          </mxGeometry>
        </mxCell>
        <mxCell id="Njh6gPiwi0WYRp7ecPLT-173" value="é único" style="ellipse;whiteSpace=wrap;html=1;align=center;" vertex="1" parent="1">
          <mxGeometry x="1754.94" y="1320" width="60" height="20" as="geometry" />
        </mxCell>
        <mxCell id="Njh6gPiwi0WYRp7ecPLT-174" value="" style="edgeStyle=orthogonalEdgeStyle;rounded=0;orthogonalLoop=1;jettySize=auto;html=1;exitX=0.5;exitY=1;exitDx=0;exitDy=0;endArrow=none;endFill=0;" edge="1" parent="1" source="Njh6gPiwi0WYRp7ecPLT-56" target="Njh6gPiwi0WYRp7ecPLT-176">
          <mxGeometry relative="1" as="geometry">
            <mxPoint x="2020" y="1630" as="sourcePoint" />
            <mxPoint x="1785" y="1790" as="targetPoint" />
            <Array as="points">
              <mxPoint x="2120" y="1760" />
            </Array>
          </mxGeometry>
        </mxCell>
        <mxCell id="Njh6gPiwi0WYRp7ecPLT-175" value="(0,N)" style="edgeLabel;html=1;align=center;verticalAlign=middle;resizable=0;points=[];" connectable="0" vertex="1" parent="Njh6gPiwi0WYRp7ecPLT-174">
          <mxGeometry x="0.8734" y="1" relative="1" as="geometry">
            <mxPoint x="10" y="-1" as="offset" />
          </mxGeometry>
        </mxCell>
        <mxCell id="Njh6gPiwi0WYRp7ecPLT-176" value="melhora equipamento" style="shape=rhombus;perimeter=rhombusPerimeter;whiteSpace=wrap;html=1;align=center;" vertex="1" parent="1">
          <mxGeometry x="1850" y="1720" width="110" height="80" as="geometry" />
        </mxCell>
        <mxCell id="Njh6gPiwi0WYRp7ecPLT-177" style="edgeStyle=orthogonalEdgeStyle;rounded=0;orthogonalLoop=1;jettySize=auto;html=1;exitX=0.5;exitY=0;exitDx=0;exitDy=0;endArrow=none;endFill=0;" edge="1" parent="1" source="Njh6gPiwi0WYRp7ecPLT-179">
          <mxGeometry relative="1" as="geometry">
            <mxPoint x="725.1666666666667" y="1350" as="targetPoint" />
          </mxGeometry>
        </mxCell>
        <mxCell id="Njh6gPiwi0WYRp7ecPLT-178" style="edgeStyle=orthogonalEdgeStyle;rounded=0;orthogonalLoop=1;jettySize=auto;html=1;exitX=1;exitY=0.25;exitDx=0;exitDy=0;entryX=0;entryY=0;entryDx=0;entryDy=0;endArrow=none;endFill=0;" edge="1" parent="1" source="Njh6gPiwi0WYRp7ecPLT-179" target="Njh6gPiwi0WYRp7ecPLT-180">
          <mxGeometry relative="1" as="geometry" />
        </mxCell>
        <mxCell id="Njh6gPiwi0WYRp7ecPLT-179" value="Equipamento" style="whiteSpace=wrap;html=1;align=center;" vertex="1" parent="1">
          <mxGeometry x="675" y="1400" width="100" height="40" as="geometry" />
        </mxCell>
        <mxCell id="Njh6gPiwi0WYRp7ecPLT-180" value="melhoria" style="ellipse;whiteSpace=wrap;html=1;align=center;" vertex="1" parent="1">
          <mxGeometry x="790" y="1403" width="60" height="20" as="geometry" />
        </mxCell>
        <mxCell id="Njh6gPiwi0WYRp7ecPLT-181" value="peso" style="ellipse;whiteSpace=wrap;html=1;align=center;" vertex="1" parent="1">
          <mxGeometry x="790" y="1423" width="60" height="20" as="geometry" />
        </mxCell>
        <mxCell id="Njh6gPiwi0WYRp7ecPLT-182" value="custo melhoria" style="ellipse;whiteSpace=wrap;html=1;align=center;" vertex="1" parent="1">
          <mxGeometry x="790" y="1443" width="60" height="40" as="geometry" />
        </mxCell>
        <mxCell id="Njh6gPiwi0WYRp7ecPLT-183" value="requisitos" style="ellipse;whiteSpace=wrap;html=1;align=center;" vertex="1" parent="1">
          <mxGeometry x="790" y="1363" width="60" height="20" as="geometry" />
        </mxCell>
        <mxCell id="Njh6gPiwi0WYRp7ecPLT-184" value="habilidade" style="ellipse;whiteSpace=wrap;html=1;align=center;" vertex="1" parent="1">
          <mxGeometry x="925" y="1628" width="60" height="20" as="geometry" />
        </mxCell>
        <mxCell id="Njh6gPiwi0WYRp7ecPLT-185" value="foi derrotado&lt;div&gt;por&lt;/div&gt;" style="shape=rhombus;perimeter=rhombusPerimeter;whiteSpace=wrap;html=1;align=center;" vertex="1" parent="1">
          <mxGeometry x="1850" y="1890" width="120" height="60" as="geometry" />
        </mxCell>
        <mxCell id="Njh6gPiwi0WYRp7ecPLT-186" style="edgeStyle=orthogonalEdgeStyle;rounded=0;orthogonalLoop=1;jettySize=auto;html=1;exitX=1;exitY=0.5;exitDx=0;exitDy=0;entryX=0.643;entryY=1.029;entryDx=0;entryDy=0;entryPerimeter=0;jumpStyle=gap;endArrow=none;endFill=0;" edge="1" parent="1" source="Njh6gPiwi0WYRp7ecPLT-185" target="Njh6gPiwi0WYRp7ecPLT-56">
          <mxGeometry relative="1" as="geometry" />
        </mxCell>
        <mxCell id="Njh6gPiwi0WYRp7ecPLT-187" value="(0, N)" style="edgeLabel;html=1;align=center;verticalAlign=middle;resizable=0;points=[];" connectable="0" vertex="1" parent="1">
          <mxGeometry x="1839.996666666667" y="1930" as="geometry">
            <mxPoint x="155" y="-12" as="offset" />
          </mxGeometry>
        </mxCell>
        <mxCell id="Njh6gPiwi0WYRp7ecPLT-188" value="Diálogo" style="whiteSpace=wrap;html=1;align=center;" vertex="1" parent="1">
          <mxGeometry x="1737.44" y="1395" width="95" height="30" as="geometry" />
        </mxCell>
        <mxCell id="Njh6gPiwi0WYRp7ecPLT-189" value="fala" style="shape=rhombus;perimeter=rhombusPerimeter;whiteSpace=wrap;html=1;align=center;" vertex="1" parent="1">
          <mxGeometry x="1747.44" y="1465" width="85" height="50" as="geometry" />
        </mxCell>
        <mxCell id="Njh6gPiwi0WYRp7ecPLT-190" value="contém" style="shape=rhombus;perimeter=rhombusPerimeter;whiteSpace=wrap;html=1;align=center;" vertex="1" parent="1">
          <mxGeometry x="685" y="1155" width="80" height="50" as="geometry" />
        </mxCell>
        <mxCell id="Njh6gPiwi0WYRp7ecPLT-191" value="evolui nível" style="shape=rhombus;perimeter=rhombusPerimeter;whiteSpace=wrap;html=1;align=center;" vertex="1" parent="1">
          <mxGeometry x="1970" y="1480" width="100" height="60" as="geometry" />
        </mxCell>
        <mxCell id="Njh6gPiwi0WYRp7ecPLT-192" value="id dialogo" style="ellipse;whiteSpace=wrap;html=1;align=center;" vertex="1" parent="1">
          <mxGeometry x="1754.94" y="1360" width="60" height="20" as="geometry" />
        </mxCell>
        <mxCell id="Njh6gPiwi0WYRp7ecPLT-193" style="edgeStyle=orthogonalEdgeStyle;rounded=0;orthogonalLoop=1;jettySize=auto;html=1;endArrow=none;endFill=0;dashed=1;dashPattern=1 1;endSize=1;startSize=3;entryX=0.068;entryY=0.75;entryDx=0;entryDy=0;entryPerimeter=0;exitX=1;exitY=1;exitDx=0;exitDy=0;" edge="1" parent="1" source="Njh6gPiwi0WYRp7ecPLT-192" target="Njh6gPiwi0WYRp7ecPLT-192">
          <mxGeometry relative="1" as="geometry">
            <mxPoint x="1810" y="1380" as="sourcePoint" />
            <mxPoint x="1754" y="1378" as="targetPoint" />
            <Array as="points">
              <mxPoint x="1810" y="1377" />
              <mxPoint x="1810" y="1375" />
            </Array>
          </mxGeometry>
        </mxCell>
        <mxCell id="Njh6gPiwi0WYRp7ecPLT-194" value="" style="shape=link;html=1;rounded=0;entryX=0.5;entryY=1;entryDx=0;entryDy=0;" edge="1" parent="1" target="Njh6gPiwi0WYRp7ecPLT-179">
          <mxGeometry relative="1" as="geometry">
            <mxPoint x="725" y="1470" as="sourcePoint" />
            <mxPoint x="725" y="1450" as="targetPoint" />
            <Array as="points" />
          </mxGeometry>
        </mxCell>
        <mxCell id="Njh6gPiwi0WYRp7ecPLT-195" value="é chave" style="ellipse;whiteSpace=wrap;html=1;align=center;strokeWidth=3;" vertex="1" parent="1">
          <mxGeometry x="790" y="1240" width="60" height="30" as="geometry" />
        </mxCell>
        <mxCell id="Njh6gPiwi0WYRp7ecPLT-196" value="não-chave" style="text;html=1;align=center;verticalAlign=middle;resizable=0;points=[];autosize=1;strokeColor=none;fillColor=none;" vertex="1" parent="1">
          <mxGeometry x="650" y="1345" width="80" height="30" as="geometry" />
        </mxCell>
        <mxCell id="Njh6gPiwi0WYRp7ecPLT-197" value="" style="shape=link;html=1;rounded=0;" edge="1" parent="1">
          <mxGeometry relative="1" as="geometry">
            <mxPoint x="725" y="1500" as="sourcePoint" />
            <mxPoint x="725" y="1500" as="targetPoint" />
            <Array as="points" />
          </mxGeometry>
        </mxCell>
        <mxCell id="Njh6gPiwi0WYRp7ecPLT-198" value="" style="shape=link;html=1;rounded=0;entryX=0.5;entryY=1;entryDx=0;entryDy=0;exitX=0.5;exitY=0;exitDx=0;exitDy=0;" edge="1" parent="1" source="Njh6gPiwi0WYRp7ecPLT-321">
          <mxGeometry relative="1" as="geometry">
            <mxPoint x="1550" y="1552" as="sourcePoint" />
            <mxPoint x="1549.6599999999999" y="1517" as="targetPoint" />
            <Array as="points" />
          </mxGeometry>
        </mxCell>
        <mxCell id="Njh6gPiwi0WYRp7ecPLT-199" value="tipo" style="ellipse;whiteSpace=wrap;html=1;align=center;" vertex="1" parent="1">
          <mxGeometry x="1520" y="1380" width="60" height="20" as="geometry" />
        </mxCell>
        <mxCell id="Njh6gPiwi0WYRp7ecPLT-200" value="tipo" style="text;html=1;align=center;verticalAlign=middle;resizable=0;points=[];autosize=1;strokeColor=none;fillColor=none;" vertex="1" parent="1">
          <mxGeometry x="1500" y="1547" width="40" height="30" as="geometry" />
        </mxCell>
        <mxCell id="Njh6gPiwi0WYRp7ecPLT-201" value="`jogável´" style="text;html=1;align=center;verticalAlign=middle;resizable=0;points=[];autosize=1;strokeColor=none;fillColor=none;" vertex="1" parent="1">
          <mxGeometry x="2005" y="1575" width="70" height="30" as="geometry" />
        </mxCell>
        <mxCell id="Njh6gPiwi0WYRp7ecPLT-202" value="`n-jogável´" style="text;html=1;align=center;verticalAlign=middle;resizable=0;points=[];autosize=1;strokeColor=none;fillColor=none;" vertex="1" parent="1">
          <mxGeometry x="1474.94" y="1633" width="80" height="30" as="geometry" />
        </mxCell>
        <mxCell id="Njh6gPiwi0WYRp7ecPLT-203" value="tipo" style="ellipse;whiteSpace=wrap;html=1;align=center;" vertex="1" parent="1">
          <mxGeometry x="790" y="1383" width="60" height="20" as="geometry" />
        </mxCell>
        <mxCell id="Njh6gPiwi0WYRp7ecPLT-204" value="tipo" style="text;html=1;align=center;verticalAlign=middle;resizable=0;points=[];autosize=1;strokeColor=none;fillColor=none;" vertex="1" parent="1">
          <mxGeometry x="725" y="1445" width="40" height="30" as="geometry" />
        </mxCell>
        <mxCell id="Njh6gPiwi0WYRp7ecPLT-205" value="`armadura´" style="text;html=1;align=center;verticalAlign=middle;resizable=0;points=[];autosize=1;strokeColor=none;fillColor=none;" vertex="1" parent="1">
          <mxGeometry x="400" y="1532" width="80" height="30" as="geometry" />
        </mxCell>
        <mxCell id="Njh6gPiwi0WYRp7ecPLT-206" value="&lt;span style=&quot;color: rgb(0, 0, 0); font-family: Helvetica; font-size: 12px; font-style: normal; font-variant-ligatures: normal; font-variant-caps: normal; font-weight: 400; letter-spacing: normal; orphans: 2; text-align: center; text-indent: 0px; text-transform: none; widows: 2; word-spacing: 0px; -webkit-text-stroke-width: 0px; white-space: nowrap; background-color: rgb(251, 251, 251); text-decoration-thickness: initial; text-decoration-style: initial; text-decoration-color: initial; display: inline !important; float: none;&quot;&gt;`arma´&lt;/span&gt;" style="text;whiteSpace=wrap;html=1;" vertex="1" parent="1">
          <mxGeometry x="725" y="1542" width="90" height="40" as="geometry" />
        </mxCell>
        <mxCell id="Njh6gPiwi0WYRp7ecPLT-207" value="&lt;span style=&quot;color: rgb(0, 0, 0); font-family: Helvetica; font-size: 12px; font-style: normal; font-variant-ligatures: normal; font-variant-caps: normal; font-weight: 400; letter-spacing: normal; orphans: 2; text-align: center; text-indent: 0px; text-transform: none; widows: 2; word-spacing: 0px; -webkit-text-stroke-width: 0px; white-space: nowrap; background-color: rgb(251, 251, 251); text-decoration-thickness: initial; text-decoration-style: initial; text-decoration-color: initial; display: inline !important; float: none;&quot;&gt;`esc.´&lt;/span&gt;" style="text;whiteSpace=wrap;html=1;" vertex="1" parent="1">
          <mxGeometry x="915" y="1542" width="90" height="40" as="geometry" />
        </mxCell>
        <mxCell id="Njh6gPiwi0WYRp7ecPLT-208" value="função" style="ellipse;whiteSpace=wrap;html=1;align=center;strokeWidth=3;" vertex="1" parent="1">
          <mxGeometry x="1400" y="1690" width="70" height="20" as="geometry" />
        </mxCell>
        <mxCell id="Njh6gPiwi0WYRp7ecPLT-209" value="" style="edgeStyle=orthogonalEdgeStyle;rounded=0;orthogonalLoop=1;jettySize=auto;html=1;exitX=0.5;exitY=1;exitDx=0;exitDy=0;entryX=0.5;entryY=0;entryDx=0;entryDy=0;endArrow=none;endFill=0;startArrow=block;startFill=0;" edge="1" parent="1" source="Njh6gPiwi0WYRp7ecPLT-38" target="Njh6gPiwi0WYRp7ecPLT-210">
          <mxGeometry relative="1" as="geometry">
            <Array as="points" />
            <mxPoint x="1550" y="1700" as="sourcePoint" />
            <mxPoint x="1480" y="1850" as="targetPoint" />
          </mxGeometry>
        </mxCell>
        <mxCell id="Njh6gPiwi0WYRp7ecPLT-210" value="O" style="ellipse;whiteSpace=wrap;html=1;aspect=fixed;" vertex="1" parent="1">
          <mxGeometry x="1533.75" y="1730" width="32.5" height="32.5" as="geometry" />
        </mxCell>
        <mxCell id="Njh6gPiwi0WYRp7ecPLT-211" value="função" style="text;html=1;align=center;verticalAlign=middle;resizable=0;points=[];autosize=1;strokeColor=none;fillColor=none;" vertex="1" parent="1">
          <mxGeometry x="1544.94" y="1705" width="60" height="30" as="geometry" />
        </mxCell>
        <mxCell id="Njh6gPiwi0WYRp7ecPLT-212" value="`ini.´" style="text;html=1;align=center;verticalAlign=middle;resizable=0;points=[];autosize=1;strokeColor=none;fillColor=none;" vertex="1" parent="1">
          <mxGeometry x="1485" y="1818" width="50" height="30" as="geometry" />
        </mxCell>
        <mxCell id="Njh6gPiwi0WYRp7ecPLT-213" value="&lt;span style=&quot;color: rgb(0, 0, 0); font-family: Helvetica; font-size: 12px; font-style: normal; font-variant-ligatures: normal; font-variant-caps: normal; font-weight: 400; letter-spacing: normal; orphans: 2; text-align: center; text-indent: 0px; text-transform: none; widows: 2; word-spacing: 0px; -webkit-text-stroke-width: 0px; white-space: nowrap; background-color: rgb(251, 251, 251); text-decoration-thickness: initial; text-decoration-style: initial; text-decoration-color: initial; display: inline !important; float: none;&quot;&gt;`chefe´&lt;/span&gt;" style="text;whiteSpace=wrap;html=1;" vertex="1" parent="1">
          <mxGeometry x="1600" y="1818" width="80" height="40" as="geometry" />
        </mxCell>
        <mxCell id="Njh6gPiwi0WYRp7ecPLT-214" value="&lt;span style=&quot;color: rgb(0, 0, 0); font-family: Helvetica; font-size: 12px; font-style: normal; font-variant-ligatures: normal; font-variant-caps: normal; font-weight: 400; letter-spacing: normal; orphans: 2; text-align: center; text-indent: 0px; text-transform: none; widows: 2; word-spacing: 0px; -webkit-text-stroke-width: 0px; white-space: nowrap; background-color: rgb(251, 251, 251); text-decoration-thickness: initial; text-decoration-style: initial; text-decoration-color: initial; display: inline !important; float: none;&quot;&gt;`ferr.´&lt;/span&gt;" style="text;whiteSpace=wrap;html=1;" vertex="1" parent="1">
          <mxGeometry x="1710" y="1760" width="80" height="40" as="geometry" />
        </mxCell>
        <mxCell id="Njh6gPiwi0WYRp7ecPLT-215" style="edgeStyle=orthogonalEdgeStyle;rounded=0;orthogonalLoop=1;jettySize=auto;html=1;exitX=1;exitY=0.5;exitDx=0;exitDy=0;entryX=0.5;entryY=0;entryDx=0;entryDy=0;endArrow=none;endFill=0;" edge="1" parent="1" source="Njh6gPiwi0WYRp7ecPLT-217" target="Njh6gPiwi0WYRp7ecPLT-219">
          <mxGeometry relative="1" as="geometry">
            <mxPoint x="910" y="1700.333333333333" as="targetPoint" />
          </mxGeometry>
        </mxCell>
        <mxCell id="Njh6gPiwi0WYRp7ecPLT-216" value="(1,1)" style="edgeLabel;html=1;align=center;verticalAlign=middle;resizable=0;points=[];" connectable="0" vertex="1" parent="Njh6gPiwi0WYRp7ecPLT-215">
          <mxGeometry x="-0.6222" y="2" relative="1" as="geometry">
            <mxPoint x="-2" y="7" as="offset" />
          </mxGeometry>
        </mxCell>
        <mxCell id="Njh6gPiwi0WYRp7ecPLT-217" value="recebe" style="shape=rhombus;perimeter=rhombusPerimeter;whiteSpace=wrap;html=1;align=center;" vertex="1" parent="1">
          <mxGeometry x="840" y="1648" width="100" height="60" as="geometry" />
        </mxCell>
        <mxCell id="Njh6gPiwi0WYRp7ecPLT-218" style="edgeStyle=orthogonalEdgeStyle;rounded=0;orthogonalLoop=1;jettySize=auto;html=1;exitX=0.5;exitY=1;exitDx=0;exitDy=0;entryX=0.5;entryY=0;entryDx=0;entryDy=0;endArrow=none;endFill=0;" edge="1" parent="1" source="Njh6gPiwi0WYRp7ecPLT-219" target="Njh6gPiwi0WYRp7ecPLT-220">
          <mxGeometry relative="1" as="geometry" />
        </mxCell>
        <mxCell id="Njh6gPiwi0WYRp7ecPLT-219" value="Engaste" style="whiteSpace=wrap;html=1;align=center;" vertex="1" parent="1">
          <mxGeometry x="915" y="1813" width="100" height="40" as="geometry" />
        </mxCell>
        <mxCell id="Njh6gPiwi0WYRp7ecPLT-220" value="&lt;u&gt;id engaste&lt;/u&gt;" style="ellipse;whiteSpace=wrap;html=1;align=center;" vertex="1" parent="1">
          <mxGeometry x="930" y="1860" width="70" height="30" as="geometry" />
        </mxCell>
        <mxCell id="Njh6gPiwi0WYRp7ecPLT-221" value="atributo extra" style="ellipse;whiteSpace=wrap;html=1;align=center;" vertex="1" parent="1">
          <mxGeometry x="930" y="1890" width="70" height="30" as="geometry" />
        </mxCell>
        <mxCell id="Njh6gPiwi0WYRp7ecPLT-222" value="nome" style="ellipse;whiteSpace=wrap;html=1;align=center;" vertex="1" parent="1">
          <mxGeometry x="2455" y="1633" width="50" height="21" as="geometry" />
        </mxCell>
        <mxCell id="Njh6gPiwi0WYRp7ecPLT-223" value="atributos" style="ellipse;whiteSpace=wrap;html=1;align=center;" vertex="1" parent="1">
          <mxGeometry x="2200" y="1537.5" width="60" height="20" as="geometry" />
        </mxCell>
        <mxCell id="Njh6gPiwi0WYRp7ecPLT-224" value="" style="endArrow=none;html=1;rounded=0;entryX=0;entryY=0.5;entryDx=0;entryDy=0;exitX=0.5;exitY=0;exitDx=0;exitDy=0;" edge="1" parent="1" source="Njh6gPiwi0WYRp7ecPLT-223" target="Njh6gPiwi0WYRp7ecPLT-105">
          <mxGeometry width="50" height="50" relative="1" as="geometry">
            <mxPoint x="2300" y="1482" as="sourcePoint" />
            <mxPoint x="2340" y="1442" as="targetPoint" />
          </mxGeometry>
        </mxCell>
        <mxCell id="Njh6gPiwi0WYRp7ecPLT-225" value="" style="endArrow=none;html=1;rounded=0;entryX=0;entryY=0.5;entryDx=0;entryDy=0;" edge="1" parent="1" source="Njh6gPiwi0WYRp7ecPLT-223" target="Njh6gPiwi0WYRp7ecPLT-104">
          <mxGeometry width="50" height="50" relative="1" as="geometry">
            <mxPoint x="2300" y="1492" as="sourcePoint" />
            <mxPoint x="2355" y="1415" as="targetPoint" />
          </mxGeometry>
        </mxCell>
        <mxCell id="Njh6gPiwi0WYRp7ecPLT-226" value="" style="endArrow=none;html=1;rounded=0;exitX=0.5;exitY=0;exitDx=0;exitDy=0;entryX=0;entryY=0.5;entryDx=0;entryDy=0;" edge="1" parent="1" source="Njh6gPiwi0WYRp7ecPLT-223" target="Njh6gPiwi0WYRp7ecPLT-95">
          <mxGeometry width="50" height="50" relative="1" as="geometry">
            <mxPoint x="2320" y="1512" as="sourcePoint" />
            <mxPoint x="2344" y="1422" as="targetPoint" />
          </mxGeometry>
        </mxCell>
        <mxCell id="Njh6gPiwi0WYRp7ecPLT-227" value="" style="endArrow=none;html=1;rounded=0;entryX=0;entryY=0.5;entryDx=0;entryDy=0;exitX=0.5;exitY=0;exitDx=0;exitDy=0;" edge="1" parent="1" source="Njh6gPiwi0WYRp7ecPLT-223" target="Njh6gPiwi0WYRp7ecPLT-94">
          <mxGeometry width="50" height="50" relative="1" as="geometry">
            <mxPoint x="2330" y="1522" as="sourcePoint" />
            <mxPoint x="2375" y="1435" as="targetPoint" />
          </mxGeometry>
        </mxCell>
        <mxCell id="Njh6gPiwi0WYRp7ecPLT-228" value="" style="endArrow=none;html=1;rounded=0;entryX=0;entryY=0.5;entryDx=0;entryDy=0;exitX=0.5;exitY=0;exitDx=0;exitDy=0;" edge="1" parent="1" source="Njh6gPiwi0WYRp7ecPLT-223" target="Njh6gPiwi0WYRp7ecPLT-93">
          <mxGeometry width="50" height="50" relative="1" as="geometry">
            <mxPoint x="2300" y="1492" as="sourcePoint" />
            <mxPoint x="2385" y="1445" as="targetPoint" />
          </mxGeometry>
        </mxCell>
        <mxCell id="Njh6gPiwi0WYRp7ecPLT-229" value="" style="endArrow=none;html=1;rounded=0;entryX=0;entryY=0.5;entryDx=0;entryDy=0;exitX=0.5;exitY=0;exitDx=0;exitDy=0;" edge="1" parent="1" source="Njh6gPiwi0WYRp7ecPLT-223" target="Njh6gPiwi0WYRp7ecPLT-92">
          <mxGeometry width="50" height="50" relative="1" as="geometry">
            <mxPoint x="2310" y="1503" as="sourcePoint" />
            <mxPoint x="2395" y="1455" as="targetPoint" />
          </mxGeometry>
        </mxCell>
        <mxCell id="Njh6gPiwi0WYRp7ecPLT-230" value="base str" style="ellipse;whiteSpace=wrap;html=1;align=center;" vertex="1" parent="1">
          <mxGeometry x="2450" y="1756" width="60" height="20" as="geometry" />
        </mxCell>
        <mxCell id="Njh6gPiwi0WYRp7ecPLT-231" value="base dex" style="ellipse;whiteSpace=wrap;html=1;align=center;" vertex="1" parent="1">
          <mxGeometry x="2450" y="1734" width="60" height="20" as="geometry" />
        </mxCell>
        <mxCell id="Njh6gPiwi0WYRp7ecPLT-232" value="base fé" style="ellipse;whiteSpace=wrap;html=1;align=center;" vertex="1" parent="1">
          <mxGeometry x="2450" y="1714" width="60" height="20" as="geometry" />
        </mxCell>
        <mxCell id="Njh6gPiwi0WYRp7ecPLT-233" value="base int" style="ellipse;whiteSpace=wrap;html=1;align=center;" vertex="1" parent="1">
          <mxGeometry x="2450" y="1694" width="60" height="20" as="geometry" />
        </mxCell>
        <mxCell id="Njh6gPiwi0WYRp7ecPLT-234" value="base vig" style="ellipse;whiteSpace=wrap;html=1;align=center;" vertex="1" parent="1">
          <mxGeometry x="2450" y="1674" width="60" height="20" as="geometry" />
        </mxCell>
        <mxCell id="Njh6gPiwi0WYRp7ecPLT-235" value="base vit" style="ellipse;whiteSpace=wrap;html=1;align=center;" vertex="1" parent="1">
          <mxGeometry x="2450" y="1654" width="60" height="20" as="geometry" />
        </mxCell>
        <mxCell id="Njh6gPiwi0WYRp7ecPLT-236" style="edgeStyle=orthogonalEdgeStyle;rounded=0;orthogonalLoop=1;jettySize=auto;html=1;exitX=0.5;exitY=1;exitDx=0;exitDy=0;entryX=0;entryY=0.5;entryDx=0;entryDy=0;endArrow=none;endFill=0;" edge="1" parent="1" source="Njh6gPiwi0WYRp7ecPLT-237" target="Njh6gPiwi0WYRp7ecPLT-191">
          <mxGeometry relative="1" as="geometry" />
        </mxCell>
        <mxCell id="Njh6gPiwi0WYRp7ecPLT-237" value="Subir de Nível" style="whiteSpace=wrap;html=1;align=center;" vertex="1" parent="1">
          <mxGeometry x="1890" y="1405" width="100" height="40" as="geometry" />
        </mxCell>
        <mxCell id="Njh6gPiwi0WYRp7ecPLT-238" value="&lt;u&gt;nro nível&lt;/u&gt;" style="ellipse;whiteSpace=wrap;html=1;align=center;" vertex="1" parent="1">
          <mxGeometry x="1910" y="1380" width="60" height="25" as="geometry" />
        </mxCell>
        <mxCell id="Njh6gPiwi0WYRp7ecPLT-239" value="runas necessárias" style="ellipse;whiteSpace=wrap;html=1;align=center;" vertex="1" parent="1">
          <mxGeometry x="1895" y="1350" width="90" height="30" as="geometry" />
        </mxCell>
        <mxCell id="Njh6gPiwi0WYRp7ecPLT-240" style="edgeStyle=orthogonalEdgeStyle;rounded=0;orthogonalLoop=1;jettySize=auto;html=1;exitX=0.5;exitY=1;exitDx=0;exitDy=0;endArrow=none;endFill=0;" edge="1" parent="1" source="Njh6gPiwi0WYRp7ecPLT-241">
          <mxGeometry relative="1" as="geometry">
            <mxPoint x="1620" y="2240" as="targetPoint" />
          </mxGeometry>
        </mxCell>
        <mxCell id="Njh6gPiwi0WYRp7ecPLT-241" value="Golpes" style="whiteSpace=wrap;html=1;align=center;" vertex="1" parent="1">
          <mxGeometry x="1570" y="2190" width="100" height="40" as="geometry" />
        </mxCell>
        <mxCell id="Njh6gPiwi0WYRp7ecPLT-242" value="realiza" style="shape=rhombus;perimeter=rhombusPerimeter;whiteSpace=wrap;html=1;align=center;" vertex="1" parent="1">
          <mxGeometry x="1415" y="2185" width="90" height="50" as="geometry" />
        </mxCell>
        <mxCell id="Njh6gPiwi0WYRp7ecPLT-243" value="(1,N)" style="edgeLabel;html=1;align=center;verticalAlign=middle;resizable=0;points=[];" connectable="0" vertex="1" parent="1">
          <mxGeometry x="1400.0014285714294" y="2210" as="geometry">
            <mxPoint x="129" y="2" as="offset" />
          </mxGeometry>
        </mxCell>
        <mxCell id="Njh6gPiwi0WYRp7ecPLT-244" value="multiplicador" style="ellipse;whiteSpace=wrap;html=1;align=center;" vertex="1" parent="1">
          <mxGeometry x="1579.94" y="2260" width="80" height="20" as="geometry" />
        </mxCell>
        <mxCell id="Njh6gPiwi0WYRp7ecPLT-245" value="dano final" style="ellipse;whiteSpace=wrap;html=1;align=center;dashed=1;" vertex="1" parent="1">
          <mxGeometry x="1580" y="2280" width="80" height="20" as="geometry" />
        </mxCell>
        <mxCell id="Njh6gPiwi0WYRp7ecPLT-246" value="&lt;u&gt;id golpe&lt;/u&gt;" style="ellipse;whiteSpace=wrap;html=1;align=center;" vertex="1" parent="1">
          <mxGeometry x="1579.94" y="2240" width="80" height="20" as="geometry" />
        </mxCell>
        <mxCell id="Njh6gPiwi0WYRp7ecPLT-247" value="desperate move" style="ellipse;whiteSpace=wrap;html=1;align=center;" vertex="1" parent="1">
          <mxGeometry x="1582.41" y="1940" width="67.59" height="40" as="geometry" />
        </mxCell>
        <mxCell id="Njh6gPiwi0WYRp7ecPLT-248" value="realiza" style="shape=rhombus;perimeter=rhombusPerimeter;whiteSpace=wrap;html=1;align=center;" vertex="1" parent="1">
          <mxGeometry x="1664.94" y="2140" width="90" height="50" as="geometry" />
        </mxCell>
        <mxCell id="Njh6gPiwi0WYRp7ecPLT-249" value="(1,N)" style="edgeLabel;html=1;align=center;verticalAlign=middle;resizable=0;points=[];" connectable="0" vertex="1" parent="1">
          <mxGeometry x="1719.9971428571434" y="2100" as="geometry">
            <mxPoint x="-14" y="-6" as="offset" />
          </mxGeometry>
        </mxCell>
        <mxCell id="Njh6gPiwi0WYRp7ecPLT-250" style="edgeStyle=orthogonalEdgeStyle;rounded=0;orthogonalLoop=1;jettySize=auto;html=1;entryX=0.75;entryY=0;entryDx=0;entryDy=0;endArrow=none;endFill=0;exitX=0.5;exitY=1;exitDx=0;exitDy=0;" edge="1" parent="1" source="Njh6gPiwi0WYRp7ecPLT-256" target="Njh6gPiwi0WYRp7ecPLT-56">
          <mxGeometry relative="1" as="geometry">
            <mxPoint x="2195.037037037037" y="1441.979423868313" as="sourcePoint" />
          </mxGeometry>
        </mxCell>
        <mxCell id="Njh6gPiwi0WYRp7ecPLT-251" value="(1, N)" style="edgeLabel;html=1;align=center;verticalAlign=middle;resizable=0;points=[];" connectable="0" vertex="1" parent="Njh6gPiwi0WYRp7ecPLT-250">
          <mxGeometry x="0.8339" y="-2" relative="1" as="geometry">
            <mxPoint as="offset" />
          </mxGeometry>
        </mxCell>
        <mxCell id="Njh6gPiwi0WYRp7ecPLT-252" style="edgeStyle=orthogonalEdgeStyle;rounded=0;orthogonalLoop=1;jettySize=auto;html=1;entryX=0.5;entryY=0;entryDx=0;entryDy=0;endArrow=none;endFill=0;" edge="1" parent="1" source="Njh6gPiwi0WYRp7ecPLT-255" target="Njh6gPiwi0WYRp7ecPLT-256">
          <mxGeometry relative="1" as="geometry" />
        </mxCell>
        <mxCell id="Njh6gPiwi0WYRp7ecPLT-253" value="(1, N)" style="edgeLabel;html=1;align=center;verticalAlign=middle;resizable=0;points=[];" connectable="0" vertex="1" parent="Njh6gPiwi0WYRp7ecPLT-252">
          <mxGeometry x="-0.6597" y="-2" relative="1" as="geometry">
            <mxPoint x="-10" y="2" as="offset" />
          </mxGeometry>
        </mxCell>
        <mxCell id="Njh6gPiwi0WYRp7ecPLT-254" style="edgeStyle=orthogonalEdgeStyle;rounded=0;orthogonalLoop=1;jettySize=auto;html=1;exitX=0.5;exitY=0;exitDx=0;exitDy=0;entryX=1;entryY=0.5;entryDx=0;entryDy=0;endArrow=none;endFill=0;" edge="1" parent="1" source="Njh6gPiwi0WYRp7ecPLT-255" target="Njh6gPiwi0WYRp7ecPLT-289">
          <mxGeometry relative="1" as="geometry" />
        </mxCell>
        <mxCell id="Njh6gPiwi0WYRp7ecPLT-255" value="Area de Morte" style="whiteSpace=wrap;html=1;align=center;" vertex="1" parent="1">
          <mxGeometry x="2405" y="1323" width="100" height="40" as="geometry" />
        </mxCell>
        <mxCell id="Njh6gPiwi0WYRp7ecPLT-256" value="morreu" style="shape=rhombus;perimeter=rhombusPerimeter;whiteSpace=wrap;html=1;align=center;" vertex="1" parent="1">
          <mxGeometry x="2150" y="1392" width="90" height="50" as="geometry" />
        </mxCell>
        <mxCell id="Njh6gPiwi0WYRp7ecPLT-257" value="efeito" style="ellipse;whiteSpace=wrap;html=1;align=center;" vertex="1" parent="1">
          <mxGeometry x="992.5" y="1420" width="60" height="20" as="geometry" />
        </mxCell>
        <mxCell id="Njh6gPiwi0WYRp7ecPLT-258" value="descrição" style="ellipse;whiteSpace=wrap;html=1;align=center;" vertex="1" parent="1">
          <mxGeometry x="992.5" y="1439" width="60" height="20" as="geometry" />
        </mxCell>
        <mxCell id="Njh6gPiwi0WYRp7ecPLT-259" style="edgeStyle=orthogonalEdgeStyle;rounded=0;orthogonalLoop=1;jettySize=auto;html=1;entryX=0.5;entryY=0;entryDx=0;entryDy=0;endArrow=none;endFill=0;" edge="1" parent="1" source="Njh6gPiwi0WYRp7ecPLT-260" target="Njh6gPiwi0WYRp7ecPLT-265">
          <mxGeometry relative="1" as="geometry" />
        </mxCell>
        <mxCell id="Njh6gPiwi0WYRp7ecPLT-260" value="Cajado" style="whiteSpace=wrap;html=1;align=center;" vertex="1" parent="1">
          <mxGeometry x="380" y="1760" width="100" height="40" as="geometry" />
        </mxCell>
        <mxCell id="Njh6gPiwi0WYRp7ecPLT-261" style="edgeStyle=orthogonalEdgeStyle;rounded=0;orthogonalLoop=1;jettySize=auto;html=1;endArrow=none;endFill=0;entryX=0.5;entryY=1;entryDx=0;entryDy=0;exitX=1;exitY=0.5;exitDx=0;exitDy=0;shape=link;" edge="1" parent="1">
          <mxGeometry relative="1" as="geometry">
            <mxPoint x="724.8800000000001" y="1627.5" as="sourcePoint" />
            <mxPoint x="724.8800000000001" y="1605" as="targetPoint" />
          </mxGeometry>
        </mxCell>
        <mxCell id="Njh6gPiwi0WYRp7ecPLT-262" style="edgeStyle=orthogonalEdgeStyle;rounded=0;orthogonalLoop=1;jettySize=auto;html=1;endArrow=none;endFill=0;" edge="1" parent="1" source="Njh6gPiwi0WYRp7ecPLT-264" target="Njh6gPiwi0WYRp7ecPLT-266">
          <mxGeometry relative="1" as="geometry" />
        </mxCell>
        <mxCell id="Njh6gPiwi0WYRp7ecPLT-263" style="edgeStyle=orthogonalEdgeStyle;rounded=0;orthogonalLoop=1;jettySize=auto;html=1;entryX=0;entryY=0.5;entryDx=0;entryDy=0;endArrow=none;endFill=0;exitX=0.5;exitY=0;exitDx=0;exitDy=0;" edge="1" parent="1" source="Njh6gPiwi0WYRp7ecPLT-264">
          <mxGeometry relative="1" as="geometry">
            <mxPoint x="560" y="1759" as="sourcePoint" />
            <mxPoint x="718.7" y="1652" as="targetPoint" />
            <Array as="points">
              <mxPoint x="565" y="1689" />
              <mxPoint x="719" y="1689" />
            </Array>
          </mxGeometry>
        </mxCell>
        <mxCell id="Njh6gPiwi0WYRp7ecPLT-264" value="Selo" style="whiteSpace=wrap;html=1;align=center;" vertex="1" parent="1">
          <mxGeometry x="515" y="1760" width="100" height="40" as="geometry" />
        </mxCell>
        <mxCell id="Njh6gPiwi0WYRp7ecPLT-265" value="Proficiência" style="ellipse;whiteSpace=wrap;html=1;align=center;" vertex="1" parent="1">
          <mxGeometry x="395" y="1803" width="70" height="22" as="geometry" />
        </mxCell>
        <mxCell id="Njh6gPiwi0WYRp7ecPLT-266" value="Milagre" style="ellipse;whiteSpace=wrap;html=1;align=center;" vertex="1" parent="1">
          <mxGeometry x="530" y="1804" width="70" height="22" as="geometry" />
        </mxCell>
        <mxCell id="Njh6gPiwi0WYRp7ecPLT-267" value="`cajado´" style="text;html=1;align=center;verticalAlign=middle;resizable=0;points=[];autosize=1;strokeColor=none;fillColor=none;" vertex="1" parent="1">
          <mxGeometry x="420" y="1735" width="70" height="30" as="geometry" />
        </mxCell>
        <mxCell id="Njh6gPiwi0WYRp7ecPLT-268" value="`selo´" style="text;html=1;align=center;verticalAlign=middle;resizable=0;points=[];autosize=1;strokeColor=none;fillColor=none;" vertex="1" parent="1">
          <mxGeometry x="565" y="1735" width="50" height="30" as="geometry" />
        </mxCell>
        <mxCell id="Njh6gPiwi0WYRp7ecPLT-269" style="edgeStyle=orthogonalEdgeStyle;rounded=0;orthogonalLoop=1;jettySize=auto;html=1;entryX=0.5;entryY=0;entryDx=0;entryDy=0;endArrow=none;endFill=0;" edge="1" parent="1" source="Njh6gPiwi0WYRp7ecPLT-271" target="Njh6gPiwi0WYRp7ecPLT-276">
          <mxGeometry relative="1" as="geometry" />
        </mxCell>
        <mxCell id="Njh6gPiwi0WYRp7ecPLT-270" style="edgeStyle=orthogonalEdgeStyle;rounded=0;orthogonalLoop=1;jettySize=auto;html=1;entryX=0;entryY=0.5;entryDx=0;entryDy=0;endArrow=none;endFill=0;" edge="1" parent="1" source="Njh6gPiwi0WYRp7ecPLT-271">
          <mxGeometry relative="1" as="geometry">
            <mxPoint x="725" y="1653" as="targetPoint" />
          </mxGeometry>
        </mxCell>
        <mxCell id="Njh6gPiwi0WYRp7ecPLT-271" value="Armas Leves" style="whiteSpace=wrap;html=1;align=center;" vertex="1" parent="1">
          <mxGeometry x="645" y="1760" width="100" height="40" as="geometry" />
        </mxCell>
        <mxCell id="Njh6gPiwi0WYRp7ecPLT-272" style="edgeStyle=orthogonalEdgeStyle;rounded=0;orthogonalLoop=1;jettySize=auto;html=1;entryX=0.5;entryY=0;entryDx=0;entryDy=0;endArrow=none;endFill=0;" edge="1" parent="1" source="Njh6gPiwi0WYRp7ecPLT-274" target="Njh6gPiwi0WYRp7ecPLT-275">
          <mxGeometry relative="1" as="geometry" />
        </mxCell>
        <mxCell id="Njh6gPiwi0WYRp7ecPLT-273" style="edgeStyle=orthogonalEdgeStyle;rounded=0;orthogonalLoop=1;jettySize=auto;html=1;entryX=0;entryY=0.5;entryDx=0;entryDy=0;endArrow=none;endFill=0;" edge="1" parent="1" source="Njh6gPiwi0WYRp7ecPLT-274">
          <mxGeometry relative="1" as="geometry">
            <Array as="points">
              <mxPoint x="820" y="1653" />
            </Array>
            <mxPoint x="725" y="1653" as="targetPoint" />
          </mxGeometry>
        </mxCell>
        <mxCell id="Njh6gPiwi0WYRp7ecPLT-274" value="Armas Pesadas" style="whiteSpace=wrap;html=1;align=center;" vertex="1" parent="1">
          <mxGeometry x="770" y="1760" width="100" height="40" as="geometry" />
        </mxCell>
        <mxCell id="Njh6gPiwi0WYRp7ecPLT-275" value="Força" style="ellipse;whiteSpace=wrap;html=1;align=center;" vertex="1" parent="1">
          <mxGeometry x="785" y="1804" width="70" height="22" as="geometry" />
        </mxCell>
        <mxCell id="Njh6gPiwi0WYRp7ecPLT-276" value="Destreza" style="ellipse;whiteSpace=wrap;html=1;align=center;" vertex="1" parent="1">
          <mxGeometry x="660" y="1804" width="70" height="22" as="geometry" />
        </mxCell>
        <mxCell id="Njh6gPiwi0WYRp7ecPLT-277" value="`armaLeve´" style="text;html=1;align=center;verticalAlign=middle;resizable=0;points=[];autosize=1;strokeColor=none;fillColor=none;" vertex="1" parent="1">
          <mxGeometry x="695" y="1735" width="80" height="30" as="geometry" />
        </mxCell>
        <mxCell id="Njh6gPiwi0WYRp7ecPLT-278" value="`armaPesada´" style="text;html=1;align=center;verticalAlign=middle;resizable=0;points=[];autosize=1;strokeColor=none;fillColor=none;" vertex="1" parent="1">
          <mxGeometry x="810" y="1735" width="100" height="30" as="geometry" />
        </mxCell>
        <mxCell id="Njh6gPiwi0WYRp7ecPLT-279" style="edgeStyle=orthogonalEdgeStyle;rounded=0;orthogonalLoop=1;jettySize=auto;html=1;endArrow=none;endFill=0;exitX=0.5;exitY=0;exitDx=0;exitDy=0;" edge="1" parent="1" source="Njh6gPiwi0WYRp7ecPLT-260">
          <mxGeometry relative="1" as="geometry">
            <mxPoint x="430" y="1752.5" as="sourcePoint" />
            <mxPoint x="725" y="1653" as="targetPoint" />
            <Array as="points">
              <mxPoint x="430" y="1653" />
            </Array>
          </mxGeometry>
        </mxCell>
        <mxCell id="Njh6gPiwi0WYRp7ecPLT-280" style="edgeStyle=orthogonalEdgeStyle;rounded=0;orthogonalLoop=1;jettySize=auto;html=1;exitX=1;exitY=0.5;exitDx=0;exitDy=0;entryX=0;entryY=0.5;entryDx=0;entryDy=0;endArrow=none;endFill=0;" edge="1" parent="1" source="Njh6gPiwi0WYRp7ecPLT-281" target="Njh6gPiwi0WYRp7ecPLT-233">
          <mxGeometry relative="1" as="geometry">
            <mxPoint x="2390" y="1706.9699999999998" as="sourcePoint" />
          </mxGeometry>
        </mxCell>
        <mxCell id="Njh6gPiwi0WYRp7ecPLT-281" value="Classe" style="whiteSpace=wrap;html=1;align=center;" vertex="1" parent="1">
          <mxGeometry x="2340" y="1686.5" width="100" height="40" as="geometry" />
        </mxCell>
        <mxCell id="Njh6gPiwi0WYRp7ecPLT-282" style="edgeStyle=orthogonalEdgeStyle;rounded=0;orthogonalLoop=1;jettySize=auto;html=1;exitX=1;exitY=0.5;exitDx=0;exitDy=0;entryX=0;entryY=0.5;entryDx=0;entryDy=0;endArrow=none;endFill=0;" edge="1" parent="1" source="Njh6gPiwi0WYRp7ecPLT-283" target="Njh6gPiwi0WYRp7ecPLT-281">
          <mxGeometry relative="1" as="geometry" />
        </mxCell>
        <mxCell id="Njh6gPiwi0WYRp7ecPLT-283" value="possui" style="shape=rhombus;perimeter=rhombusPerimeter;whiteSpace=wrap;html=1;align=center;" vertex="1" parent="1">
          <mxGeometry x="2230" y="1680" width="80" height="55" as="geometry" />
        </mxCell>
        <mxCell id="Njh6gPiwi0WYRp7ecPLT-284" value="(1,N)" style="edgeLabel;html=1;align=center;verticalAlign=middle;resizable=0;points=[];" connectable="0" vertex="1" parent="1">
          <mxGeometry x="2539.9999999999995" y="1632.996666666667" as="geometry">
            <mxPoint x="-222" y="62" as="offset" />
          </mxGeometry>
        </mxCell>
        <mxCell id="Njh6gPiwi0WYRp7ecPLT-285" value="&lt;span style=&quot;color: rgb(0, 0, 0); font-family: Helvetica; font-size: 11px; font-style: normal; font-variant-ligatures: normal; font-variant-caps: normal; font-weight: 400; letter-spacing: normal; orphans: 2; text-align: center; text-indent: 0px; text-transform: none; widows: 2; word-spacing: 0px; -webkit-text-stroke-width: 0px; white-space: nowrap; background-color: rgb(255, 255, 255); text-decoration-thickness: initial; text-decoration-style: initial; text-decoration-color: initial; display: inline !important; float: none;&quot;&gt;(1,N)&lt;/span&gt;" style="text;whiteSpace=wrap;html=1;" vertex="1" parent="1">
          <mxGeometry x="2190" y="1684" width="60" height="40" as="geometry" />
        </mxCell>
        <mxCell id="Njh6gPiwi0WYRp7ecPLT-286" value="runa" style="ellipse;whiteSpace=wrap;html=1;align=center;" vertex="1" parent="1">
          <mxGeometry x="2200" y="1650" width="60" height="20" as="geometry" />
        </mxCell>
        <mxCell id="Njh6gPiwi0WYRp7ecPLT-287" value="runas dropadas" style="ellipse;whiteSpace=wrap;html=1;align=center;" vertex="1" parent="1">
          <mxGeometry x="2410" y="1363" width="90" height="27" as="geometry" />
        </mxCell>
        <mxCell id="Njh6gPiwi0WYRp7ecPLT-288" value="(0, 1)" style="edgeLabel;html=1;align=center;verticalAlign=middle;resizable=0;points=[];" connectable="0" vertex="1" parent="1">
          <mxGeometry x="2405" y="1363.0026315789473" as="geometry">
            <mxPoint x="32" y="-55" as="offset" />
          </mxGeometry>
        </mxCell>
        <mxCell id="Njh6gPiwi0WYRp7ecPLT-289" value="é uma" style="shape=rhombus;perimeter=rhombusPerimeter;whiteSpace=wrap;html=1;align=center;" vertex="1" parent="1">
          <mxGeometry x="2170" y="1250" width="120" height="50" as="geometry" />
        </mxCell>
        <mxCell id="Njh6gPiwi0WYRp7ecPLT-290" style="edgeStyle=orthogonalEdgeStyle;rounded=0;orthogonalLoop=1;jettySize=auto;html=1;exitX=0;exitY=0.5;exitDx=0;exitDy=0;entryX=0.835;entryY=0.987;entryDx=0;entryDy=0;entryPerimeter=0;endArrow=none;endFill=0;" edge="1" parent="1" source="Njh6gPiwi0WYRp7ecPLT-289" target="Njh6gPiwi0WYRp7ecPLT-11">
          <mxGeometry relative="1" as="geometry">
            <Array as="points">
              <mxPoint x="2170" y="1260" />
              <mxPoint x="1744" y="1260" />
            </Array>
          </mxGeometry>
        </mxCell>
        <mxCell id="Njh6gPiwi0WYRp7ecPLT-291" value="(0,1)" style="edgeLabel;html=1;align=center;verticalAlign=middle;resizable=0;points=[];" connectable="0" vertex="1" parent="1">
          <mxGeometry x="2090.0021739130434" y="1260.0034782608695" as="geometry">
            <mxPoint x="6" y="1" as="offset" />
          </mxGeometry>
        </mxCell>
        <mxCell id="Njh6gPiwi0WYRp7ecPLT-292" style="edgeStyle=orthogonalEdgeStyle;rounded=0;orthogonalLoop=1;jettySize=auto;html=1;exitX=1;exitY=0.5;exitDx=0;exitDy=0;strokeColor=default;align=center;verticalAlign=middle;fontFamily=Helvetica;fontSize=11;fontColor=default;labelBackgroundColor=default;endArrow=none;endFill=0;entryX=0.9;entryY=1.125;entryDx=0;entryDy=0;entryPerimeter=0;" edge="1" parent="1" source="Njh6gPiwi0WYRp7ecPLT-294" target="Njh6gPiwi0WYRp7ecPLT-56">
          <mxGeometry relative="1" as="geometry">
            <mxPoint x="2180" y="2040" as="targetPoint" />
          </mxGeometry>
        </mxCell>
        <mxCell id="Njh6gPiwi0WYRp7ecPLT-293" value="(1,1)" style="edgeLabel;html=1;align=center;verticalAlign=middle;resizable=0;points=[];fontFamily=Helvetica;fontSize=11;fontColor=default;labelBackgroundColor=default;" connectable="0" vertex="1" parent="Njh6gPiwi0WYRp7ecPLT-292">
          <mxGeometry x="-0.9473" y="2" relative="1" as="geometry">
            <mxPoint as="offset" />
          </mxGeometry>
        </mxCell>
        <mxCell id="Njh6gPiwi0WYRp7ecPLT-294" value="Equipa" style="shape=rhombus;perimeter=rhombusPerimeter;whiteSpace=wrap;html=1;align=center;" vertex="1" parent="1">
          <mxGeometry x="1175.5" y="2280" width="120" height="60" as="geometry" />
        </mxCell>
        <mxCell id="Njh6gPiwi0WYRp7ecPLT-295" style="edgeStyle=orthogonalEdgeStyle;rounded=0;orthogonalLoop=1;jettySize=auto;html=1;exitX=0.5;exitY=1;exitDx=0;exitDy=0;entryX=0;entryY=0.5;entryDx=0;entryDy=0;strokeColor=default;align=center;verticalAlign=middle;fontFamily=Helvetica;fontSize=11;fontColor=default;labelBackgroundColor=default;endArrow=none;endFill=0;" edge="1" parent="1" source="Njh6gPiwi0WYRp7ecPLT-298" target="Njh6gPiwi0WYRp7ecPLT-294">
          <mxGeometry relative="1" as="geometry" />
        </mxCell>
        <mxCell id="Njh6gPiwi0WYRp7ecPLT-296" value="(1,1)" style="edgeLabel;html=1;align=center;verticalAlign=middle;resizable=0;points=[];fontFamily=Helvetica;fontSize=11;fontColor=default;labelBackgroundColor=default;" connectable="0" vertex="1" parent="Njh6gPiwi0WYRp7ecPLT-295">
          <mxGeometry x="0.6447" y="1" relative="1" as="geometry">
            <mxPoint as="offset" />
          </mxGeometry>
        </mxCell>
        <mxCell id="Njh6gPiwi0WYRp7ecPLT-297" style="edgeStyle=orthogonalEdgeStyle;rounded=0;orthogonalLoop=1;jettySize=auto;html=1;exitX=0;exitY=0.5;exitDx=0;exitDy=0;entryX=1;entryY=0.5;entryDx=0;entryDy=0;endArrow=none;endFill=0;" edge="1" parent="1" source="Njh6gPiwi0WYRp7ecPLT-298" target="Njh6gPiwi0WYRp7ecPLT-302">
          <mxGeometry relative="1" as="geometry" />
        </mxCell>
        <mxCell id="Njh6gPiwi0WYRp7ecPLT-298" value="Equipados" style="whiteSpace=wrap;html=1;align=center;" vertex="1" parent="1">
          <mxGeometry x="1010" y="2160" width="100" height="40" as="geometry" />
        </mxCell>
        <mxCell id="Njh6gPiwi0WYRp7ecPLT-299" value="Disponibiliza itens para" style="shape=rhombus;perimeter=rhombusPerimeter;whiteSpace=wrap;html=1;align=center;" vertex="1" parent="1">
          <mxGeometry x="985" y="1980" width="140" height="70" as="geometry" />
        </mxCell>
        <mxCell id="Njh6gPiwi0WYRp7ecPLT-300" style="edgeStyle=orthogonalEdgeStyle;rounded=0;orthogonalLoop=1;jettySize=auto;html=1;exitX=0.5;exitY=1;exitDx=0;exitDy=0;entryX=0.435;entryY=-0.016;entryDx=0;entryDy=0;entryPerimeter=0;strokeColor=default;align=center;verticalAlign=middle;fontFamily=Helvetica;fontSize=11;fontColor=default;labelBackgroundColor=default;endArrow=none;endFill=0;" edge="1" parent="1" source="Njh6gPiwi0WYRp7ecPLT-299" target="Njh6gPiwi0WYRp7ecPLT-298">
          <mxGeometry relative="1" as="geometry" />
        </mxCell>
        <mxCell id="Njh6gPiwi0WYRp7ecPLT-301" value="(1,1)" style="edgeLabel;html=1;align=center;verticalAlign=middle;resizable=0;points=[];fontFamily=Helvetica;fontSize=11;fontColor=default;labelBackgroundColor=default;" connectable="0" vertex="1" parent="Njh6gPiwi0WYRp7ecPLT-300">
          <mxGeometry x="-0.0869" y="-1" relative="1" as="geometry">
            <mxPoint as="offset" />
          </mxGeometry>
        </mxCell>
        <mxCell id="Njh6gPiwi0WYRp7ecPLT-302" value="Mão direita" style="ellipse;whiteSpace=wrap;html=1;align=center;" vertex="1" parent="1">
          <mxGeometry x="910" y="2165" width="90" height="35" as="geometry" />
        </mxCell>
        <mxCell id="Njh6gPiwi0WYRp7ecPLT-303" value="Mão esquerda" style="ellipse;whiteSpace=wrap;html=1;align=center;" vertex="1" parent="1">
          <mxGeometry x="910" y="2200" width="90" height="35" as="geometry" />
        </mxCell>
        <mxCell id="Njh6gPiwi0WYRp7ecPLT-304" value="Elmo" style="ellipse;whiteSpace=wrap;html=1;align=center;" vertex="1" parent="1">
          <mxGeometry x="910" y="2235" width="90" height="35" as="geometry" />
        </mxCell>
        <mxCell id="Njh6gPiwi0WYRp7ecPLT-305" value="Peitoral" style="ellipse;whiteSpace=wrap;html=1;align=center;" vertex="1" parent="1">
          <mxGeometry x="910" y="2272.5" width="90" height="35" as="geometry" />
        </mxCell>
        <mxCell id="Njh6gPiwi0WYRp7ecPLT-306" value="Pernas" style="ellipse;whiteSpace=wrap;html=1;align=center;" vertex="1" parent="1">
          <mxGeometry x="910" y="2307.5" width="90" height="35" as="geometry" />
        </mxCell>
        <mxCell id="Njh6gPiwi0WYRp7ecPLT-307" value="Manopolas" style="ellipse;whiteSpace=wrap;html=1;align=center;" vertex="1" parent="1">
          <mxGeometry x="910" y="2342.5" width="90" height="35" as="geometry" />
        </mxCell>
        <mxCell id="Njh6gPiwi0WYRp7ecPLT-308" value="&lt;u&gt;id_equipados&lt;/u&gt;" style="ellipse;whiteSpace=wrap;html=1;align=center;" vertex="1" parent="1">
          <mxGeometry x="910" y="2130" width="90" height="35" as="geometry" />
        </mxCell>
        <mxCell id="Njh6gPiwi0WYRp7ecPLT-310" value="força" style="ellipse;whiteSpace=wrap;html=1;align=center;" vertex="1" parent="1">
          <mxGeometry x="890" y="1430" width="60" height="20" as="geometry" />
        </mxCell>
        <mxCell id="Njh6gPiwi0WYRp7ecPLT-311" value="destreza" style="ellipse;whiteSpace=wrap;html=1;align=center;" vertex="1" parent="1">
          <mxGeometry x="890" y="1410" width="60" height="20" as="geometry" />
        </mxCell>
        <mxCell id="Njh6gPiwi0WYRp7ecPLT-312" value="fé" style="ellipse;whiteSpace=wrap;html=1;align=center;" vertex="1" parent="1">
          <mxGeometry x="890" y="1390" width="60" height="20" as="geometry" />
        </mxCell>
        <mxCell id="Njh6gPiwi0WYRp7ecPLT-313" value="" style="endArrow=none;html=1;rounded=0;exitX=0.5;exitY=0;exitDx=0;exitDy=0;entryX=0;entryY=0.5;entryDx=0;entryDy=0;" edge="1" parent="1" target="Njh6gPiwi0WYRp7ecPLT-312">
          <mxGeometry width="50" height="50" relative="1" as="geometry">
            <mxPoint x="850" y="1376" as="sourcePoint" />
            <mxPoint x="900" y="1310" as="targetPoint" />
          </mxGeometry>
        </mxCell>
        <mxCell id="Njh6gPiwi0WYRp7ecPLT-314" value="" style="endArrow=none;html=1;rounded=0;entryX=0;entryY=0.5;entryDx=0;entryDy=0;" edge="1" parent="1" target="Njh6gPiwi0WYRp7ecPLT-317">
          <mxGeometry width="50" height="50" relative="1" as="geometry">
            <mxPoint x="850" y="1370" as="sourcePoint" />
            <mxPoint x="920" y="1350" as="targetPoint" />
          </mxGeometry>
        </mxCell>
        <mxCell id="Njh6gPiwi0WYRp7ecPLT-315" value="" style="endArrow=none;html=1;rounded=0;entryX=0;entryY=0.5;entryDx=0;entryDy=0;exitX=0.967;exitY=0.721;exitDx=0;exitDy=0;exitPerimeter=0;" edge="1" parent="1" source="Njh6gPiwi0WYRp7ecPLT-183" target="Njh6gPiwi0WYRp7ecPLT-311">
          <mxGeometry width="50" height="50" relative="1" as="geometry">
            <mxPoint x="850" y="1370" as="sourcePoint" />
            <mxPoint x="1025" y="1356" as="targetPoint" />
          </mxGeometry>
        </mxCell>
        <mxCell id="Njh6gPiwi0WYRp7ecPLT-316" value="" style="endArrow=none;html=1;rounded=0;entryX=0;entryY=0.5;entryDx=0;entryDy=0;" edge="1" parent="1" target="Njh6gPiwi0WYRp7ecPLT-310">
          <mxGeometry width="50" height="50" relative="1" as="geometry">
            <mxPoint x="850" y="1380" as="sourcePoint" />
            <mxPoint x="1035" y="1366" as="targetPoint" />
          </mxGeometry>
        </mxCell>
        <mxCell id="Njh6gPiwi0WYRp7ecPLT-317" value="int" style="ellipse;whiteSpace=wrap;html=1;align=center;" vertex="1" parent="1">
          <mxGeometry x="890" y="1370" width="60" height="20" as="geometry" />
        </mxCell>
        <mxCell id="Njh6gPiwi0WYRp7ecPLT-318" value="&lt;b&gt;Observação&lt;/b&gt;: caso o item seja chave, ele é considerado um item chave e não pode ser um equipamento ou consumível" style="rounded=1;whiteSpace=wrap;html=1;" vertex="1" parent="1">
          <mxGeometry x="872.5" y="1240" width="167.5" height="80" as="geometry" />
        </mxCell>
        <mxCell id="Njh6gPiwi0WYRp7ecPLT-319" value="&lt;b&gt;Observação&lt;/b&gt;: Um NPC pode possuir outras funções além de inimigo, chefe e ferreiro. Por exemplo, pode ser um mercante ou um viajante." style="rounded=1;whiteSpace=wrap;html=1;" vertex="1" parent="1">
          <mxGeometry x="1350" y="1560" width="160" height="80" as="geometry" />
        </mxCell>
        <mxCell id="Njh6gPiwi0WYRp7ecPLT-320" value="" style="endArrow=none;html=1;rounded=0;endFill=0;" edge="1" parent="1" target="Njh6gPiwi0WYRp7ecPLT-321">
          <mxGeometry width="50" height="50" relative="1" as="geometry">
            <mxPoint x="2070" y="1580" as="sourcePoint" />
            <mxPoint x="1550" y="1580" as="targetPoint" />
            <Array as="points">
              <mxPoint x="1990" y="1580" />
              <mxPoint x="1880" y="1580" />
              <mxPoint x="1760" y="1580" />
            </Array>
          </mxGeometry>
        </mxCell>
        <mxCell id="Njh6gPiwi0WYRp7ecPLT-321" value="D" style="ellipse;whiteSpace=wrap;html=1;aspect=fixed;" vertex="1" parent="1">
          <mxGeometry x="1533.75" y="1562" width="32.5" height="32.5" as="geometry" />
        </mxCell>
        <mxCell id="Njh6gPiwi0WYRp7ecPLT-322" value="D" style="ellipse;whiteSpace=wrap;html=1;aspect=fixed;" vertex="1" parent="1">
          <mxGeometry x="708.75" y="1466.5" width="32.5" height="32.5" as="geometry" />
        </mxCell>
        <mxCell id="Njh6gPiwi0WYRp7ecPLT-323" value="D" style="ellipse;whiteSpace=wrap;html=1;aspect=fixed;" vertex="1" parent="1">
          <mxGeometry x="708.75" y="1623.75" width="32.5" height="32.5" as="geometry" />
        </mxCell>
        <mxCell id="Njh6gPiwi0WYRp7ecPLT-324" value="(1, N)" style="edgeLabel;html=1;align=center;verticalAlign=middle;resizable=0;points=[];" connectable="0" vertex="1" parent="1">
          <mxGeometry x="1700" y="1120" as="geometry">
            <mxPoint x="136" y="-19" as="offset" />
          </mxGeometry>
        </mxCell>
        <mxCell id="Njh6gPiwi0WYRp7ecPLT-325" value="" style="edgeStyle=orthogonalEdgeStyle;rounded=0;orthogonalLoop=1;jettySize=auto;html=1;exitX=1;exitY=0.25;exitDx=0;exitDy=0;entryX=1;entryY=0.5;entryDx=0;entryDy=0;endArrow=none;endFill=0;" edge="1" parent="1" target="Njh6gPiwi0WYRp7ecPLT-327">
          <mxGeometry relative="1" as="geometry">
            <mxPoint x="1724" y="1161" as="targetPoint" />
            <mxPoint x="1760" y="1160" as="sourcePoint" />
            <Array as="points">
              <mxPoint x="1820" y="1160" />
            </Array>
          </mxGeometry>
        </mxCell>
        <mxCell id="Njh6gPiwi0WYRp7ecPLT-326" value="conecta à" style="edgeLabel;html=1;align=center;verticalAlign=middle;resizable=0;points=[];" connectable="0" vertex="1" parent="Njh6gPiwi0WYRp7ecPLT-325">
          <mxGeometry x="-0.4483" y="1" relative="1" as="geometry">
            <mxPoint as="offset" />
          </mxGeometry>
        </mxCell>
        <mxCell id="Njh6gPiwi0WYRp7ecPLT-327" value="conecta" style="shape=rhombus;perimeter=rhombusPerimeter;whiteSpace=wrap;html=1;align=center;" vertex="1" parent="1">
          <mxGeometry x="1725" y="1070" width="90" height="40" as="geometry" />
        </mxCell>
        <mxCell id="Njh6gPiwi0WYRp7ecPLT-328" value="(1, N)" style="edgeLabel;html=1;align=center;verticalAlign=middle;resizable=0;points=[];" connectable="0" vertex="1" parent="1">
          <mxGeometry x="1640.0014285714287" y="1180" as="geometry">
            <mxPoint x="83" y="-63" as="offset" />
          </mxGeometry>
        </mxCell>
      </root>
    </mxGraphModel>
  </diagram>
</mxfile>
